<svg width="1133" height="1133" viewBox="0 0 1133 1133" fill="none" xmlns="http://www.w3.org/2000/svg">
<rect width="1133" height="1133" fill="#030D26"/>
<g clip-path="url(#clip0)">
<path d="M241.136 0H880.201V1019.72H241.136V0Z" fill="url(#paint0_radial)"/>
<path d="M480.766 800.392L434.309 871.864C431.06 876.412 427.703 880.816 424.238 885.076C420.773 889.335 417.127 893.125 413.301 896.446C409.474 899.767 405.431 902.402 401.172 904.352C396.912 906.373 392.4 907.384 387.635 907.384C385.253 907.384 382.943 907.095 380.705 906.518C378.539 905.94 376.59 905.038 374.857 903.81C373.197 902.655 371.861 901.175 370.85 899.37C369.839 897.565 369.334 895.436 369.334 892.981C369.334 891.032 369.695 889.263 370.417 887.675C371.139 886.159 372.078 884.859 373.233 883.776C374.388 882.766 375.723 881.971 377.239 881.394C378.828 880.816 380.416 880.528 382.004 880.528C383.665 880.528 385.361 880.816 387.094 881.394C388.827 881.971 390.307 882.657 391.534 883.451L391.101 884.318C389.873 883.812 388.61 883.343 387.311 882.91C386.011 882.477 384.712 882.26 383.412 882.26C381.318 882.26 379.405 883.199 377.673 885.076C376.012 886.953 375.182 889.841 375.182 893.739C375.182 897.565 376.445 900.562 378.972 902.727C381.571 904.965 384.928 906.084 389.043 906.084C392.436 906.084 395.793 905.146 399.114 903.269C402.435 901.392 405.648 898.901 408.752 895.797C411.857 892.765 414.853 889.335 417.741 885.509C420.701 881.683 423.48 877.82 426.079 873.922C428.678 870.023 431.097 866.269 433.335 862.659C435.645 859.05 437.738 855.981 439.616 853.455L439.399 853.238C437.305 855.765 434.851 858.436 432.035 861.252C429.292 863.995 426.404 866.522 423.372 868.832C420.34 871.07 417.271 872.947 414.167 874.463C411.135 875.907 408.247 876.629 405.504 876.629C402.327 876.629 400.017 875.907 398.573 874.463C397.129 873.019 396.407 870.926 396.407 868.182C396.407 865.944 397.273 863.165 399.006 859.844C400.811 856.523 403.013 852.949 405.612 849.123C408.283 845.224 411.171 841.181 414.275 836.994C417.38 832.807 420.231 828.728 422.83 824.757C425.502 820.787 427.703 817.069 429.436 813.603C431.241 810.138 432.143 807.214 432.143 804.832C432.143 803.388 431.674 802.233 430.736 801.366C429.869 800.428 428.57 799.958 426.837 799.958C423.805 799.958 420.448 800.753 416.766 802.341C413.084 803.929 409.619 806.059 406.37 808.73C403.193 811.401 400.522 814.433 398.356 817.827C396.191 821.22 395.108 824.721 395.108 828.331C395.108 830.569 395.613 832.446 396.624 833.962C397.707 835.406 399.367 836.128 401.605 836.128C403.266 836.128 404.782 835.911 406.153 835.478C407.525 835.045 408.752 834.467 409.835 833.745C410.99 832.951 412.037 832.049 412.976 831.038C413.914 830.027 414.817 828.981 415.683 827.898L416.549 828.006C414.889 830.533 412.759 832.735 410.16 834.612C407.633 836.489 404.637 837.427 401.172 837.427C398.14 837.427 395.974 836.489 394.674 834.612C393.375 832.663 392.725 830.497 392.725 828.114C392.725 824.793 393.844 821.4 396.082 817.935C398.32 814.469 401.136 811.329 404.529 808.513C407.922 805.626 411.64 803.279 415.683 801.474C419.798 799.597 423.733 798.659 427.487 798.659C430.952 798.659 433.551 799.381 435.284 800.825C437.089 802.196 437.991 804.507 437.991 807.755C437.991 809.993 437.089 812.809 435.284 816.202C433.551 819.595 431.349 823.277 428.678 827.248C426.079 831.146 423.227 835.225 420.123 839.485C417.019 843.672 414.131 847.715 411.46 851.614C408.861 855.512 406.659 859.122 404.854 862.443C403.121 865.764 402.255 868.471 402.255 870.565C402.255 872.442 402.688 873.705 403.554 874.355C404.421 875.005 405.323 875.33 406.262 875.33C408.572 875.33 411.387 874.499 414.708 872.839C418.029 871.106 421.459 868.796 424.996 865.908C428.606 863.02 432.143 859.663 435.609 855.837C439.146 852.011 442.323 847.968 445.138 843.708L473.403 800.392H480.766ZM520.111 842.084C516.574 846.56 512.928 850.892 509.174 855.079C505.419 859.194 501.629 862.876 497.803 866.125C494.049 869.301 490.295 871.864 486.541 873.813C482.786 875.691 479.177 876.629 475.711 876.629C473.329 876.629 471.416 876.34 469.972 875.763C468.6 875.257 467.517 874.644 466.723 873.922C466.001 873.128 465.496 872.333 465.207 871.539C464.991 870.673 464.882 869.915 464.882 869.265C464.882 868.038 465.243 866.991 465.965 866.125C466.687 865.258 467.698 864.825 468.997 864.825C470.152 864.825 471.055 865.222 471.705 866.016C472.354 866.811 472.679 867.749 472.679 868.832C472.679 869.482 472.499 870.132 472.138 870.781C471.777 871.431 471.271 871.828 470.622 871.972C471.271 872.983 472.174 873.669 473.329 874.03C474.484 874.319 475.675 874.463 476.903 874.463C480.007 874.463 483.256 873.561 486.649 871.756C490.114 869.951 493.58 867.605 497.045 864.717C500.582 861.757 504.084 858.436 507.549 854.754C511.015 851 514.336 847.174 517.512 843.275C518.884 841.542 520.58 839.413 522.602 836.886C524.695 834.359 527.042 831.616 529.641 828.656C532.24 825.696 535.055 822.7 538.088 819.668C541.192 816.563 544.477 813.639 547.942 810.896C551.407 808.152 555.017 805.698 558.771 803.532C562.525 801.366 566.352 799.742 570.25 798.659L570.575 799.092C568.12 801.33 565.558 804.11 562.886 807.431C560.215 810.751 557.58 814.361 554.981 818.26C552.454 822.086 550.036 826.129 547.726 830.388C545.415 834.648 543.358 838.907 541.553 843.167C539.82 847.354 538.412 851.397 537.329 855.296C536.319 859.194 535.813 862.768 535.813 866.016C535.813 868.254 536.174 870.168 536.896 871.756C537.69 873.272 539.243 874.03 541.553 874.03C542.925 874.03 544.477 873.525 546.209 872.514C548.014 871.503 549.891 870.168 551.841 868.507C553.79 866.847 555.703 865.006 557.58 862.984C559.529 860.963 561.37 858.977 563.103 857.028C564.836 855.007 566.388 853.13 567.76 851.397C569.131 849.592 570.214 848.148 571.008 847.065L571.766 847.39C569.312 850.495 566.713 853.779 563.969 857.245C561.226 860.71 558.446 863.887 555.631 866.774C552.815 869.59 549.964 871.936 547.076 873.813C544.26 875.691 541.553 876.629 538.954 876.629C537.221 876.629 535.741 876.34 534.514 875.763C533.359 875.113 532.384 874.247 531.59 873.164C530.796 872.081 530.218 870.853 529.857 869.482C529.496 868.11 529.316 866.666 529.316 865.15C529.316 861.035 529.893 857.1 531.049 853.346C532.204 849.52 533.503 845.766 534.947 842.084H520.111ZM535.489 840.784C538.737 834.07 542.564 827.501 546.967 821.075C551.444 814.65 556.714 808.55 562.778 802.774L562.562 802.557C558.735 804.434 554.981 806.745 551.299 809.488C547.689 812.231 544.152 815.264 540.687 818.585C537.221 821.906 533.828 825.443 530.507 829.197C527.258 832.951 524.082 836.814 520.977 840.784H535.489ZM630.822 800.392C627.573 802.846 624.757 805.734 622.375 809.055C619.993 812.304 617.827 815.805 615.877 819.559C614 823.313 612.268 827.212 610.679 831.255C609.163 835.298 607.647 839.377 606.131 843.492C604.615 847.535 602.991 851.505 601.258 855.404C599.598 859.23 597.648 862.84 595.41 866.233L595.627 866.45C597.865 864.356 600.283 862.01 602.882 859.411C605.554 856.812 608.261 854.104 611.004 851.289C613.82 848.473 616.599 845.621 619.343 842.734C622.086 839.846 624.685 837.03 627.14 834.287C629.667 831.544 631.977 828.945 634.07 826.49C636.164 823.963 637.897 821.725 639.269 819.776C639.702 819.126 640.351 818.151 641.218 816.852C642.156 815.552 643.167 814.145 644.25 812.629C645.333 811.04 646.524 809.416 647.824 807.755C649.123 806.095 650.423 804.615 651.722 803.315C653.022 801.944 654.285 800.825 655.512 799.958C656.74 799.092 657.859 798.659 658.869 798.659C659.23 798.659 659.555 798.803 659.844 799.092C660.133 799.309 660.277 799.67 660.277 800.175C660.277 800.608 660.097 801.114 659.736 801.691C659.375 802.196 658.942 802.738 658.436 803.315C658.003 803.821 657.498 804.326 656.92 804.832C656.343 805.337 655.837 805.77 655.404 806.131C652.372 808.802 649.845 811.762 647.824 815.011C645.802 818.188 643.997 821.581 642.409 825.19C640.893 828.8 639.521 832.518 638.294 836.344C637.067 840.099 635.731 843.889 634.287 847.715C632.915 851.469 631.327 855.187 629.522 858.869C627.79 862.479 625.588 865.908 622.916 869.157L623.133 869.373C626.454 867.135 630.1 864.681 634.07 862.01C638.041 859.338 642.012 856.487 645.983 853.455C650.026 850.35 653.924 847.065 657.678 843.6C661.504 840.135 664.934 836.525 667.966 832.771C670.998 828.945 673.525 824.974 675.546 820.859C677.568 816.744 678.795 812.484 679.228 808.08C678.434 807.647 677.82 807.033 677.387 806.239C677.026 805.373 676.846 804.471 676.846 803.532C676.846 802.377 677.243 801.438 678.037 800.716C678.903 799.922 679.95 799.525 681.177 799.525C682.044 799.525 682.766 799.742 683.343 800.175C683.993 800.536 684.498 801.041 684.859 801.691C685.293 802.269 685.581 802.954 685.726 803.749C685.87 804.471 685.942 805.192 685.942 805.914C685.942 809.091 685.04 812.448 683.235 815.986C681.502 819.523 679.228 823.061 676.413 826.598C673.597 830.136 670.384 833.673 666.775 837.211C663.237 840.676 659.627 843.925 655.945 846.957C652.336 849.989 648.834 852.769 645.441 855.296C642.048 857.822 639.124 859.916 636.67 861.576C634.937 862.732 633.06 863.995 631.038 865.367C629.017 866.666 627.032 868.002 625.082 869.373C623.205 870.673 621.436 871.972 619.776 873.272C618.115 874.499 616.78 875.618 615.769 876.629L615.119 875.763C617.718 872.153 619.956 868.254 621.834 864.067C623.711 859.808 625.443 855.44 627.032 850.964C628.62 846.416 630.208 841.867 631.796 837.319C633.457 832.771 635.298 828.439 637.319 824.324L637.103 824.216C634.72 827.176 631.869 830.533 628.548 834.287C625.227 838.041 621.653 841.94 617.827 845.982C614 849.953 610.066 853.924 606.023 857.895C602.052 861.793 598.19 865.439 594.436 868.832C593.353 869.843 592.378 870.817 591.512 871.756C590.718 872.694 589.996 873.525 589.346 874.247C588.696 874.969 588.046 875.546 587.397 875.979C586.819 876.412 586.133 876.629 585.339 876.629C584.328 876.629 583.823 876.268 583.823 875.546C583.823 875.113 584.076 874.68 584.581 874.247C585.086 873.813 585.664 873.344 586.314 872.839C586.964 872.333 587.577 871.864 588.155 871.431C588.804 870.926 589.274 870.42 589.563 869.915C591.656 866.305 593.425 862.515 594.869 858.544C596.385 854.574 597.793 850.603 599.092 846.632C600.392 842.589 601.763 838.582 603.207 834.612C604.651 830.569 606.348 826.67 608.297 822.916C610.318 819.162 612.737 815.589 615.553 812.195C618.44 808.73 621.978 805.59 626.165 802.774L625.949 802.557C623.566 803.64 620.787 804.651 617.61 805.59C614.434 806.528 611.149 807.575 607.756 808.73C604.435 809.813 601.15 811.004 597.901 812.304C594.652 813.603 591.728 815.119 589.129 816.852C586.603 818.512 584.545 820.462 582.957 822.7C581.441 824.866 580.683 827.392 580.683 830.28C580.683 832.951 581.405 835.009 582.848 836.453C584.292 837.897 586.169 838.619 588.48 838.619C590.14 838.619 591.656 838.294 593.028 837.644C594.4 836.994 595.555 836.128 596.493 835.045C597.504 833.962 598.262 832.735 598.767 831.363C599.273 829.991 599.525 828.62 599.525 827.248C599.525 826.815 599.489 826.382 599.417 825.948C599.417 825.515 599.381 825.082 599.309 824.649H600.608C600.681 825.082 600.717 825.515 600.717 825.948C600.789 826.382 600.825 826.815 600.825 827.248C600.825 829.053 600.5 830.749 599.85 832.338C599.201 833.854 598.298 835.189 597.143 836.344C596.06 837.5 594.724 838.402 593.136 839.052C591.62 839.629 589.96 839.918 588.155 839.918C585.123 839.918 582.596 839.052 580.574 837.319C578.625 835.586 577.65 833.096 577.65 829.847C577.65 826.598 578.517 823.819 580.249 821.508C582.054 819.126 584.473 817.032 587.505 815.228C590.537 813.423 594.111 811.798 598.226 810.354C602.341 808.911 606.709 807.539 611.329 806.239C615.156 805.156 618.224 804.254 620.534 803.532C622.916 802.81 624.793 802.196 626.165 801.691C627.537 801.186 628.512 800.789 629.089 800.5C629.739 800.139 630.172 799.814 630.389 799.525L630.822 800.392ZM768.714 816.31C770.085 815.516 771.06 814.325 771.638 812.737C772.287 811.076 772.612 809.524 772.612 808.08C772.612 806.636 772.107 805.481 771.096 804.615C770.158 803.676 768.894 803.207 767.306 803.207C764.923 803.207 762.469 804.001 759.942 805.59C757.415 807.178 754.961 809.127 752.578 811.437C750.196 813.748 747.994 816.238 745.972 818.909C743.951 821.581 742.218 823.999 740.774 826.165C736.226 833.24 731.786 841.109 727.454 849.773C723.195 858.436 719.044 867.388 715.001 876.629H714.243C715.109 872.37 715.542 868.218 715.542 864.175C715.542 860.566 715.326 856.992 714.893 853.455C714.459 849.917 713.99 846.343 713.485 842.734C712.979 839.196 712.51 835.659 712.077 832.121C711.644 828.584 711.427 825.01 711.427 821.4C711.427 820.101 711.427 818.837 711.427 817.61C711.499 816.31 711.536 814.975 711.536 813.603H711.319C709.947 816.491 708.287 820.065 706.338 824.324C704.461 828.511 702.295 832.951 699.84 837.644C697.458 842.337 694.786 846.993 691.826 851.614C688.939 856.234 685.834 860.421 682.513 864.175C679.265 867.857 675.835 870.853 672.226 873.164C668.616 875.474 664.862 876.629 660.963 876.629C660.097 876.629 659.195 876.521 658.256 876.304C657.245 876.088 656.343 875.763 655.549 875.33C654.682 874.896 653.996 874.319 653.491 873.597C652.914 872.875 652.625 872.009 652.625 870.998C652.625 869.843 653.022 868.904 653.816 868.182C654.61 867.388 655.585 866.991 656.74 866.991C657.678 866.991 658.473 867.316 659.122 867.966C659.7 868.543 659.989 869.301 659.989 870.24C659.989 870.745 659.916 871.287 659.772 871.864C659.555 872.37 659.158 872.694 658.581 872.839C658.653 873.2 659.014 873.633 659.664 874.138C660.314 874.644 661.324 874.896 662.696 874.896C666.017 874.896 669.302 873.813 672.551 871.648C675.871 869.41 679.084 866.486 682.188 862.876C685.365 859.266 688.397 855.115 691.285 850.422C694.245 845.658 697.024 840.784 699.623 835.803C702.295 830.822 704.785 825.876 707.096 820.967C709.406 815.986 711.463 811.437 713.268 807.322C713.413 806.6 713.593 805.77 713.81 804.832C714.098 803.821 714.496 802.882 715.001 802.016C715.506 801.077 716.12 800.283 716.842 799.634C717.636 798.984 718.538 798.659 719.549 798.659C719.333 799.381 719.044 800.139 718.683 800.933C718.322 801.655 717.997 802.557 717.708 803.64C717.419 804.723 717.167 806.059 716.95 807.647C716.734 809.163 716.625 811.149 716.625 813.603C716.625 816.563 716.842 819.523 717.275 822.483C717.708 825.371 718.177 828.367 718.683 831.471C719.188 834.576 719.657 837.788 720.091 841.109C720.524 844.43 720.74 847.968 720.74 851.722C720.74 853.816 720.596 855.981 720.307 858.219C720.018 860.457 719.513 862.876 718.791 865.475L719.008 865.692C720.307 862.804 721.787 859.591 723.448 856.054C725.108 852.444 726.841 848.834 728.646 845.224C730.523 841.615 732.436 838.077 734.385 834.612C736.334 831.146 738.175 828.078 739.908 825.407C742.435 821.581 744.962 818.115 747.488 815.011C750.015 811.834 752.542 809.091 755.069 806.781C757.596 804.471 760.086 802.702 762.541 801.474C764.996 800.175 767.378 799.525 769.688 799.525C772.143 799.525 774.092 800.211 775.536 801.583C777.052 802.882 777.81 804.543 777.81 806.564C777.81 807.864 777.521 809.055 776.944 810.138C776.439 811.221 775.753 812.231 774.886 813.17C774.02 814.036 773.045 814.794 771.962 815.444C770.88 816.094 769.797 816.599 768.714 816.96V816.31Z" fill="#0487EE"/>
<path d="M379.135 599.831H369.844C369.48 599.831 369.153 599.66 369.014 599.396C368.877 599.133 368.958 598.833 369.215 598.633L376.949 592.68H369.844C369.349 592.68 368.949 592.363 368.949 591.979C368.95 591.591 369.349 591.279 369.844 591.279H379.135C379.498 591.279 379.826 591.451 379.962 591.715C380.1 591.978 380.02 592.278 379.762 592.478L372.029 598.431H379.135C379.628 598.431 380.03 598.746 380.03 599.132C380.029 599.519 379.627 599.831 379.135 599.831ZM389.545 601.27H385.168L390.175 597.415C390.434 597.214 390.511 596.915 390.376 596.652C390.239 596.389 389.908 596.215 389.545 596.215H382.98C382.489 596.215 382.085 596.529 382.085 596.916C382.085 597.299 382.489 597.616 382.98 597.616H387.359L382.352 601.47C382.091 601.673 382.014 601.97 382.152 602.234C382.29 602.499 382.616 602.671 382.98 602.671H389.544C390.039 602.671 390.439 602.357 390.439 601.971C390.439 601.585 390.039 601.27 389.545 601.27ZM379.45 607.229H376.396L380.077 604.398C380.337 604.198 380.415 603.896 380.278 603.632C380.14 603.369 379.812 603.197 379.449 603.197H374.211C373.717 603.197 373.317 603.511 373.317 603.897C373.317 604.283 373.717 604.598 374.211 604.598H377.264L373.583 607.429C373.324 607.631 373.245 607.928 373.383 608.192C373.521 608.456 373.848 608.63 374.212 608.63H379.45C379.944 608.63 380.344 608.315 380.344 607.93C380.344 607.544 379.947 607.229 379.45 607.229Z" fill="url(#paint1_linear)"/>
<path fill-rule="evenodd" clip-rule="evenodd" d="M552.319 733.087L483.937 724.173C522.666 732.562 519.035 734.66 552.319 733.087Z" fill="#030D26"/>
<path fill-rule="evenodd" clip-rule="evenodd" d="M547.479 696.909C523.878 710.017 549.899 710.017 549.899 707.92L547.479 696.909Z" fill="#030D26"/>
<path fill-rule="evenodd" clip-rule="evenodd" d="M373.195 644.478C370.774 644.478 299.366 659.683 317.521 676.985C332.649 691.666 406.478 711.065 376.22 699.006C291.499 664.926 311.469 670.169 373.195 644.478Z" fill="#030D26"/>
<path fill-rule="evenodd" clip-rule="evenodd" d="M382.878 652.867C359.882 656.013 312.68 670.169 362.302 680.656C315.101 660.207 381.667 661.78 387.114 653.916C387.719 653.391 387.719 652.343 382.878 652.867Z" fill="#030D26"/>
<path fill-rule="evenodd" clip-rule="evenodd" d="M404.057 657.585C313.284 665.974 437.945 695.336 401.031 682.228C341.726 661.78 396.19 664.401 408.293 658.11C408.898 657.585 408.293 657.061 404.057 657.585Z" fill="#030D26"/>
<path fill-rule="evenodd" clip-rule="evenodd" d="M430.079 663.877C380.456 664.926 428.868 681.179 428.868 673.839C428.868 670.693 388.323 674.363 430.079 665.974V663.877Z" fill="#030D26"/>
<path fill-rule="evenodd" clip-rule="evenodd" d="M457.31 622.982C419.185 587.853 423.421 580.512 372.589 603.582C290.893 639.235 326.597 610.398 387.112 643.43C443.391 673.84 431.288 659.683 482.726 635.565L384.086 613.02L457.31 622.982Z" fill="#030D26"/>
<path fill-rule="evenodd" clip-rule="evenodd" d="M548.085 643.43C535.377 610.398 443.999 632.943 407.084 710.542C404.664 716.309 432.501 697.434 466.389 709.493C522.668 728.893 561.398 682.229 558.977 678.559C539.613 648.148 601.338 624.03 447.63 683.802C502.093 655.489 485.754 663.354 548.085 643.43Z" fill="#030D26"/>
<path fill-rule="evenodd" clip-rule="evenodd" d="M534.771 549.053C524.483 523.886 523.878 556.918 534.166 550.626C534.771 550.102 535.376 550.102 534.771 549.053Z" fill="#0090FF"/>
<path fill-rule="evenodd" clip-rule="evenodd" d="M549.901 546.431C551.111 535.945 539.613 541.713 545.664 547.48L549.901 546.431Z" fill="url(#paint2_linear)"/>
<path fill-rule="evenodd" clip-rule="evenodd" d="M544.453 598.338C529.324 584.706 517.826 573.696 507.538 564.258C509.959 565.307 511.169 563.21 513.59 558.491C517.221 550.626 529.324 569.501 488.173 524.935L451.864 482.99L522.667 555.869C516.01 528.605 524.483 555.869 525.088 538.567C525.693 537.518 526.298 536.47 526.903 535.945C496.04 448.385 517.826 479.32 463.967 466.736C433.105 459.396 442.182 435.277 436.13 465.687C423.422 525.459 460.336 513.924 485.148 538.043C495.435 548.529 500.882 556.918 504.513 561.112C442.787 501.865 466.993 525.983 362.302 511.303C416.16 567.928 417.976 587.328 494.83 584.182L424.027 548.529C445.813 559.015 525.693 597.29 544.453 598.338Z" fill="#030D26"/>
<path fill-rule="evenodd" clip-rule="evenodd" d="M562.002 544.858C569.869 531.226 552.319 535.42 558.371 545.907C558.976 546.955 561.397 546.955 562.002 544.858Z" fill="#030D26"/>
<path fill-rule="evenodd" clip-rule="evenodd" d="M538.401 600.435C505.723 576.841 453.68 592.571 411.319 573.171C398.006 566.879 437.341 582.085 410.714 567.928L394.375 567.404L475.465 630.321C501.487 638.186 493.62 622.981 501.487 614.592C518.431 597.29 545.663 606.203 538.401 600.435Z" fill="#030D26"/>
<path fill-rule="evenodd" clip-rule="evenodd" d="M540.218 586.279C545.059 581.036 526.904 571.598 522.063 571.598C523.273 571.074 524.484 570.025 526.904 568.453C527.509 568.453 509.96 547.48 517.222 563.734C518.432 565.831 500.883 557.966 519.037 572.647C521.458 574.744 519.642 574.744 520.853 572.647C522.063 574.22 526.904 578.414 540.218 586.279Z" fill="url(#paint3_linear)"/>
<path fill-rule="evenodd" clip-rule="evenodd" d="M555.345 597.814C555.345 594.143 526.903 574.22 551.109 599.911L555.345 597.814Z" fill="url(#paint4_linear)"/>
<path fill-rule="evenodd" clip-rule="evenodd" d="M566.239 589.425C553.531 562.685 557.162 604.63 566.239 590.998C566.239 590.473 566.239 590.473 566.239 589.425Z" fill="#0090FF"/>
<path fill-rule="evenodd" clip-rule="evenodd" d="M585.603 733.087L653.985 724.173C615.86 732.562 619.491 734.66 585.603 733.087Z" fill="#030D26"/>
<path fill-rule="evenodd" clip-rule="evenodd" d="M569.264 714.736C589.234 710.542 592.26 708.969 576.526 735.184C578.946 738.855 580.762 740.428 578.946 741.476L652.775 735.709C629.174 742.001 588.629 746.195 569.264 745.671C550.504 746.719 509.354 742.001 485.753 735.709L559.581 741.476C557.766 740.952 559.581 739.379 562.002 735.184C546.268 708.969 549.294 710.542 568.659 714.736H569.264Z" fill="#030D26"/>
<path fill-rule="evenodd" clip-rule="evenodd" d="M591.05 696.909C614.651 709.493 588.629 710.017 588.629 707.92L591.05 696.909Z" fill="#030D26"/>
<path fill-rule="evenodd" clip-rule="evenodd" d="M569.263 683.277C587.417 674.888 591.654 710.542 580.761 711.59C575.314 712.115 571.684 712.115 569.263 711.59C566.842 712.115 563.211 712.115 557.16 711.59C546.872 710.542 550.503 674.888 569.263 683.277Z" fill="#030D26"/>
<path fill-rule="evenodd" clip-rule="evenodd" d="M765.334 644.478C767.755 644.478 839.162 659.683 821.008 676.985C805.274 691.666 732.051 711.065 761.703 699.006C847.029 664.926 827.059 670.169 765.334 644.478Z" fill="#030D26"/>
<path fill-rule="evenodd" clip-rule="evenodd" d="M755.047 652.867C778.648 655.489 825.85 670.169 776.228 680.656C822.824 660.207 756.863 661.78 751.416 653.916C750.811 653.391 750.811 652.343 755.047 652.867Z" fill="#030D26"/>
<path fill-rule="evenodd" clip-rule="evenodd" d="M733.866 657.585C825.244 665.974 699.978 695.336 737.497 682.228C796.197 661.78 741.733 664.401 730.235 658.11C729.025 657.585 730.235 657.061 733.866 657.585Z" fill="#030D26"/>
<path fill-rule="evenodd" clip-rule="evenodd" d="M708.448 663.877C757.466 664.926 709.659 681.179 709.659 673.839C709.659 670.693 749.599 674.363 708.448 665.974V663.877Z" fill="#030D26"/>
<path fill-rule="evenodd" clip-rule="evenodd" d="M681.216 622.982C718.736 587.853 714.5 580.512 765.937 603.582C847.028 639.235 811.929 610.398 750.809 643.43C695.135 673.84 707.238 659.683 655.8 635.565L754.44 613.02L681.216 622.982Z" fill="#030D26"/>
<path fill-rule="evenodd" clip-rule="evenodd" d="M590.446 643.43C603.154 610.398 694.532 632.943 730.841 710.542C733.867 716.309 706.03 697.434 672.142 709.493C615.257 728.893 576.528 682.229 579.553 678.559C598.918 648.148 537.193 624.03 690.901 683.802C636.438 655.489 652.172 663.354 590.446 643.43Z" fill="#030D26"/>
<path fill-rule="evenodd" clip-rule="evenodd" d="M569.264 673.839L582.578 664.402C581.973 673.315 576.526 678.558 571.685 680.655C571.08 681.18 570.475 681.704 569.264 681.18C568.054 681.704 566.844 681.18 566.844 680.655C562.003 679.083 556.556 673.315 555.951 664.402L569.264 673.839Z" fill="#030D26"/>
<path fill-rule="evenodd" clip-rule="evenodd" d="M569.263 652.867C574.709 649.721 586.812 650.246 580.155 663.353C578.34 666.499 574.709 670.169 571.078 671.218C570.473 671.742 569.263 671.742 568.657 671.742V671.218H568.052C564.421 670.694 560.185 666.499 558.37 663.353C551.108 650.246 563.211 649.721 569.263 652.867Z" fill="#030D26"/>
<path fill-rule="evenodd" clip-rule="evenodd" d="M603.153 549.053C614.046 523.886 614.046 556.918 603.758 550.626C603.153 550.102 603.153 550.102 603.153 549.053Z" fill="#0090FF"/>
<path fill-rule="evenodd" clip-rule="evenodd" d="M588.628 546.431C587.418 535.945 598.916 541.713 592.864 547.48L588.628 546.431Z" fill="url(#paint5_linear)"/>
<path fill-rule="evenodd" clip-rule="evenodd" d="M575.919 544.858C568.658 531.226 586.207 535.42 580.156 545.907C579.55 546.955 577.13 546.431 575.919 544.858Z" fill="#030D26"/>
<path fill-rule="evenodd" clip-rule="evenodd" d="M594.073 598.339C608.597 584.707 620.7 573.172 630.382 564.259C628.567 564.783 626.751 563.21 624.331 558.491C620.7 550.626 609.202 569.502 650.352 524.411L686.056 482.99L615.254 555.87C621.91 528.605 614.043 555.87 612.833 538.567C612.833 537.519 612.228 536.47 611.623 535.946C642.485 448.386 620.095 479.32 674.558 466.212C704.816 459.396 695.739 434.753 702.395 465.688C715.104 525.459 678.189 513.925 653.378 538.043C642.485 548.529 637.039 556.918 634.013 561.113C695.739 501.865 671.533 525.459 775.619 511.303C721.76 567.929 719.945 587.328 643.696 584.182L714.499 548.529C692.108 559.015 612.833 597.29 594.073 598.339Z" fill="#030D26"/>
<path fill-rule="evenodd" clip-rule="evenodd" d="M600.126 600.435C632.804 576.317 684.847 592.571 727.208 573.171C740.521 566.879 701.186 582.085 727.813 567.928L743.547 567.404L663.062 630.321C637.04 638.186 644.907 622.981 637.04 614.592C620.096 597.29 592.259 606.203 600.126 600.435Z" fill="#030D26"/>
<path fill-rule="evenodd" clip-rule="evenodd" d="M598.312 586.279C593.471 581.036 611.625 571.598 616.467 571.598C615.256 571.074 614.046 570.025 611.625 568.452C611.02 568.452 627.965 546.956 620.703 563.733C620.098 565.831 637.647 557.966 619.492 572.647C617.072 574.744 618.887 574.744 617.072 572.647C616.467 574.22 611.02 578.414 598.312 586.279Z" fill="url(#paint6_linear)"/>
<path fill-rule="evenodd" clip-rule="evenodd" d="M583.183 597.814C583.183 594.143 611.625 574.22 587.419 599.911L583.183 597.814Z" fill="url(#paint7_linear)"/>
<path fill-rule="evenodd" clip-rule="evenodd" d="M572.289 589.425C584.393 562.685 581.367 604.63 572.289 590.998C571.684 590.473 572.289 590.473 572.289 589.425Z" fill="#0090FF"/>
<path fill-rule="evenodd" clip-rule="evenodd" d="M592.864 574.22L569.263 579.463L545.057 574.22C560.185 578.415 577.735 578.415 592.864 574.22Z" fill="#0090FF"/>
<path fill-rule="evenodd" clip-rule="evenodd" d="M569.264 588.376C569.869 588.901 571.684 587.328 574.105 583.133C575.92 581.036 585.603 573.696 579.551 589.949C577.736 594.144 586.813 581.56 590.444 583.133C586.813 584.706 577.131 593.619 577.736 594.668L581.972 597.29C588.024 589.949 590.444 586.279 591.654 584.182C591.654 584.706 591.654 585.23 592.26 586.279C592.26 586.279 615.255 562.685 611.624 556.918C609.204 553.247 596.496 549.577 584.998 547.48C585.603 546.956 586.208 545.383 588.024 542.761C597.101 522.313 592.26 562.685 603.757 542.761C657.616 450.482 580.762 457.298 568.659 412.208C555.345 462.017 479.701 448.909 534.165 542.761C546.268 562.685 541.427 522.313 550.504 542.761C551.714 545.907 552.925 546.956 553.53 547.48C542.032 549.577 528.719 553.247 526.298 556.918C522.667 562.685 546.268 586.279 546.268 586.279C546.268 585.23 546.873 584.706 546.873 584.182C547.478 586.279 550.504 589.949 556.556 597.29L560.792 594.668C561.397 593.619 551.714 584.706 548.083 583.133C551.714 581.56 560.792 594.144 558.976 589.949C552.925 573.696 562.607 581.036 563.817 583.658C566.843 587.852 568.053 588.901 569.264 588.376Z" fill="#030D26"/>
<path fill-rule="evenodd" clip-rule="evenodd" d="M569.868 589.95C569.868 590.474 568.658 589.425 568.053 589.95C567.448 590.998 566.843 590.998 565.632 592.047C560.791 596.241 555.95 602.533 540.821 603.582C490.593 607.252 497.25 629.797 500.276 628.749C549.293 617.738 548.688 653.916 569.263 650.77C589.233 653.391 589.233 617.738 638.25 628.749C641.276 629.797 647.933 605.679 597.1 603.582C586.813 603.057 569.263 592.571 569.868 589.95Z" fill="#030D26"/>
<path fill-rule="evenodd" clip-rule="evenodd" d="M583.788 546.956C577.736 546.432 572.29 545.908 569.264 546.432C565.633 545.908 560.792 546.432 554.74 547.481C557.161 544.859 557.161 529.654 562.002 533.324C568.054 536.994 560.792 542.762 568.054 543.286V543.81H568.659H569.869V543.286C577.736 542.762 569.869 536.994 575.921 532.8C581.367 529.654 581.367 544.859 583.788 546.956Z" fill="#030D26"/>
<path fill-rule="evenodd" clip-rule="evenodd" d="M552.319 733.087L483.937 724.173C522.666 732.562 519.035 734.66 552.319 733.087Z" fill="#388FD2"/>
<path fill-rule="evenodd" clip-rule="evenodd" d="M547.479 696.909C523.878 710.017 549.899 710.017 549.899 707.92L547.479 696.909Z" fill="url(#paint8_linear)"/>
<path fill-rule="evenodd" clip-rule="evenodd" d="M373.195 644.478C370.774 644.478 299.366 659.683 317.521 676.985C332.649 691.666 406.478 711.065 376.22 699.006C291.499 664.926 311.469 670.169 373.195 644.478Z" fill="#388FD2"/>
<path fill-rule="evenodd" clip-rule="evenodd" d="M382.878 652.867C359.882 656.013 312.68 670.169 362.302 680.656C315.101 660.207 381.667 661.78 387.114 653.916C387.719 653.391 387.719 652.343 382.878 652.867Z" fill="#388FD2"/>
<path fill-rule="evenodd" clip-rule="evenodd" d="M404.057 657.585C313.284 665.974 437.945 695.336 401.031 682.228C341.726 661.78 396.19 664.401 408.293 658.11C408.898 657.585 408.293 657.061 404.057 657.585Z" fill="#388FD2"/>
<path fill-rule="evenodd" clip-rule="evenodd" d="M430.079 663.877C380.456 664.926 428.868 681.179 428.868 673.839C428.868 670.693 388.323 674.363 430.079 665.974V663.877Z" fill="#388FD2"/>
<path fill-rule="evenodd" clip-rule="evenodd" d="M457.31 622.982C419.185 587.853 423.421 580.512 372.589 603.582C290.893 639.235 326.597 610.398 387.112 643.43C443.391 673.84 431.288 659.683 482.726 635.565L384.086 613.02L457.31 622.982Z" fill="url(#paint9_linear)"/>
<path fill-rule="evenodd" clip-rule="evenodd" d="M548.085 643.43C535.377 610.398 443.999 632.943 407.084 710.542C404.664 716.309 432.501 697.434 466.389 709.493C522.668 728.893 561.398 682.229 558.977 678.559C539.613 648.148 601.338 624.03 447.63 683.802C502.093 655.489 485.754 663.354 548.085 643.43Z" fill="url(#paint10_linear)"/>
<path fill-rule="evenodd" clip-rule="evenodd" d="M534.771 549.053C524.483 523.886 523.878 556.918 534.166 550.626C534.771 550.102 535.376 550.102 534.771 549.053Z" fill="#0090FF"/>
<path fill-rule="evenodd" clip-rule="evenodd" d="M549.901 546.431C551.111 535.945 539.613 541.713 545.664 547.48L549.901 546.431Z" fill="url(#paint11_linear)"/>
<path fill-rule="evenodd" clip-rule="evenodd" d="M544.453 598.338C529.324 584.706 517.826 573.696 507.538 564.258C509.959 565.307 511.169 563.21 513.59 558.491C517.221 550.626 529.324 569.501 488.173 524.935L451.864 482.99L522.667 555.869C516.01 528.605 524.483 555.869 525.088 538.567C525.693 537.518 526.298 536.47 526.903 535.945C496.04 448.385 517.826 479.32 463.967 466.736C433.105 459.396 442.182 435.277 436.13 465.687C423.422 525.459 460.336 513.924 485.148 538.043C495.435 548.529 500.882 556.918 504.513 561.112C442.787 501.865 466.993 525.983 362.302 511.303C416.16 567.928 417.976 587.328 494.83 584.182L424.027 548.529C445.813 559.015 525.693 597.29 544.453 598.338Z" fill="url(#paint12_linear)"/>
<path fill-rule="evenodd" clip-rule="evenodd" d="M562.002 544.858C569.869 531.226 552.319 535.42 558.371 545.907C558.976 546.955 561.397 546.955 562.002 544.858Z" fill="#388FD2"/>
<path fill-rule="evenodd" clip-rule="evenodd" d="M538.401 600.435C505.723 576.841 453.68 592.571 411.319 573.171C398.006 566.879 437.341 582.085 410.714 567.928L394.375 567.404L475.465 630.321C501.487 638.186 493.62 622.981 501.487 614.592C518.431 597.29 545.663 606.203 538.401 600.435Z" fill="url(#paint13_linear)"/>
<path fill-rule="evenodd" clip-rule="evenodd" d="M540.218 586.279C545.059 581.036 526.904 571.598 522.063 571.598C523.273 571.074 524.484 570.025 526.904 568.453C527.509 568.453 509.96 547.48 517.222 563.734C518.432 565.831 500.883 557.966 519.037 572.647C521.458 574.744 519.642 574.744 520.853 572.647C522.063 574.22 526.904 578.414 540.218 586.279Z" fill="url(#paint14_linear)"/>
<path fill-rule="evenodd" clip-rule="evenodd" d="M555.345 597.814C555.345 594.143 526.903 574.22 551.109 599.911L555.345 597.814Z" fill="url(#paint15_linear)"/>
<path fill-rule="evenodd" clip-rule="evenodd" d="M566.239 589.425C553.531 562.685 557.162 604.63 566.239 590.998C566.239 590.473 566.239 590.473 566.239 589.425Z" fill="#0090FF"/>
<path fill-rule="evenodd" clip-rule="evenodd" d="M585.603 733.087L653.985 724.173C615.86 732.562 619.491 734.66 585.603 733.087Z" fill="#388FD2"/>
<path fill-rule="evenodd" clip-rule="evenodd" d="M569.264 714.736C589.234 710.542 592.26 708.969 576.526 735.184C578.946 738.855 580.762 740.428 578.946 741.476L652.775 735.709C629.174 742.001 588.629 746.195 569.264 745.671C550.504 746.719 509.354 742.001 485.753 735.709L559.581 741.476C557.766 740.952 559.581 739.379 562.002 735.184C546.268 708.969 549.294 710.542 568.659 714.736H569.264Z" fill="url(#paint16_linear)"/>
<path fill-rule="evenodd" clip-rule="evenodd" d="M591.05 696.909C614.651 709.493 588.629 710.017 588.629 707.92L591.05 696.909Z" fill="url(#paint17_linear)"/>
<path fill-rule="evenodd" clip-rule="evenodd" d="M569.263 683.277C587.417 674.888 591.654 710.542 580.761 711.59C575.314 712.115 571.684 712.115 569.263 711.59C566.842 712.115 563.211 712.115 557.16 711.59C546.872 710.542 550.503 674.888 569.263 683.277Z" fill="url(#paint18_linear)"/>
<path fill-rule="evenodd" clip-rule="evenodd" d="M765.334 644.478C767.755 644.478 839.162 659.683 821.008 676.985C805.274 691.666 732.051 711.065 761.703 699.006C847.029 664.926 827.059 670.169 765.334 644.478Z" fill="#388FD2"/>
<path fill-rule="evenodd" clip-rule="evenodd" d="M755.047 652.867C778.648 655.489 825.85 670.169 776.228 680.656C822.824 660.207 756.863 661.78 751.416 653.916C750.811 653.391 750.811 652.343 755.047 652.867Z" fill="#388FD2"/>
<path fill-rule="evenodd" clip-rule="evenodd" d="M733.866 657.585C825.244 665.974 699.978 695.336 737.497 682.228C796.197 661.78 741.733 664.401 730.235 658.11C729.025 657.585 730.235 657.061 733.866 657.585Z" fill="#388FD2"/>
<path fill-rule="evenodd" clip-rule="evenodd" d="M708.448 663.877C757.466 664.926 709.659 681.179 709.659 673.839C709.659 670.693 749.599 674.363 708.448 665.974V663.877Z" fill="#388FD2"/>
<path fill-rule="evenodd" clip-rule="evenodd" d="M681.216 622.982C718.736 587.853 714.5 580.512 765.937 603.582C847.028 639.235 811.929 610.398 750.809 643.43C695.135 673.84 707.238 659.683 655.8 635.565L754.44 613.02L681.216 622.982Z" fill="url(#paint19_linear)"/>
<path fill-rule="evenodd" clip-rule="evenodd" d="M590.446 643.43C603.154 610.398 694.532 632.943 730.841 710.542C733.867 716.309 706.03 697.434 672.142 709.493C615.257 728.893 576.528 682.229 579.553 678.559C598.918 648.148 537.193 624.03 690.901 683.802C636.438 655.489 652.172 663.354 590.446 643.43Z" fill="url(#paint20_linear)"/>
<path fill-rule="evenodd" clip-rule="evenodd" d="M569.264 673.839L582.578 664.402C581.973 673.315 576.526 678.558 571.685 680.655C571.08 681.18 570.475 681.704 569.264 681.18C568.054 681.704 566.844 681.18 566.844 680.655C562.003 679.083 556.556 673.315 555.951 664.402L569.264 673.839Z" fill="url(#paint21_linear)"/>
<path fill-rule="evenodd" clip-rule="evenodd" d="M569.263 652.867C574.709 649.721 586.812 650.246 580.155 663.353C578.34 666.499 574.709 670.169 571.078 671.218C570.473 671.742 569.263 671.742 568.657 671.742V671.218H568.052C564.421 670.694 560.185 666.499 558.37 663.353C551.108 650.246 563.211 649.721 569.263 652.867Z" fill="url(#paint22_linear)"/>
<path fill-rule="evenodd" clip-rule="evenodd" d="M603.153 549.053C614.046 523.886 614.046 556.918 603.758 550.626C603.153 550.102 603.153 550.102 603.153 549.053Z" fill="#0090FF"/>
<path fill-rule="evenodd" clip-rule="evenodd" d="M588.628 546.431C587.418 535.945 598.916 541.713 592.864 547.48L588.628 546.431Z" fill="url(#paint23_linear)"/>
<path fill-rule="evenodd" clip-rule="evenodd" d="M575.919 544.858C568.658 531.226 586.207 535.42 580.156 545.907C579.55 546.955 577.13 546.431 575.919 544.858Z" fill="#388FD2"/>
<path fill-rule="evenodd" clip-rule="evenodd" d="M594.073 598.339C608.597 584.707 620.7 573.172 630.382 564.259C628.567 564.783 626.751 563.21 624.331 558.491C620.7 550.626 609.202 569.502 650.352 524.411L686.056 482.99L615.254 555.87C621.91 528.605 614.043 555.87 612.833 538.567C612.833 537.519 612.228 536.47 611.623 535.946C642.485 448.386 620.095 479.32 674.558 466.212C704.816 459.396 695.739 434.753 702.395 465.688C715.104 525.459 678.189 513.925 653.378 538.043C642.485 548.529 637.039 556.918 634.013 561.113C695.739 501.865 671.533 525.459 775.619 511.303C721.76 567.929 719.945 587.328 643.696 584.182L714.499 548.529C692.108 559.015 612.833 597.29 594.073 598.339Z" fill="url(#paint24_linear)"/>
<path fill-rule="evenodd" clip-rule="evenodd" d="M600.126 600.435C632.804 576.317 684.847 592.571 727.208 573.171C740.521 566.879 701.186 582.085 727.813 567.928L743.547 567.404L663.062 630.321C637.04 638.186 644.907 622.981 637.04 614.592C620.096 597.29 592.259 606.203 600.126 600.435Z" fill="url(#paint25_linear)"/>
<path fill-rule="evenodd" clip-rule="evenodd" d="M598.312 586.279C593.471 581.036 611.625 571.598 616.467 571.598C615.256 571.074 614.046 570.025 611.625 568.452C611.02 568.452 627.965 546.956 620.703 563.733C620.098 565.831 637.647 557.966 619.492 572.647C617.072 574.744 618.887 574.744 617.072 572.647C616.467 574.22 611.02 578.414 598.312 586.279Z" fill="url(#paint26_linear)"/>
<path fill-rule="evenodd" clip-rule="evenodd" d="M583.183 597.814C583.183 594.143 611.625 574.22 587.419 599.911L583.183 597.814Z" fill="url(#paint27_linear)"/>
<path fill-rule="evenodd" clip-rule="evenodd" d="M572.289 589.425C584.393 562.685 581.367 604.63 572.289 590.998C571.684 590.473 572.289 590.473 572.289 589.425Z" fill="#0090FF"/>
<path fill-rule="evenodd" clip-rule="evenodd" d="M592.864 574.22L569.263 579.463L545.057 574.22C560.185 578.415 577.735 578.415 592.864 574.22Z" fill="#0090FF"/>
<path fill-rule="evenodd" clip-rule="evenodd" d="M569.264 588.376C569.869 588.901 571.684 587.328 574.105 583.133C575.92 581.036 585.603 573.696 579.551 589.949C577.736 594.144 586.813 581.56 590.444 583.133C586.813 584.706 577.131 593.619 577.736 594.668L581.972 597.29C588.024 589.949 590.444 586.279 591.654 584.182C591.654 584.706 591.654 585.23 592.26 586.279C592.26 586.279 615.255 562.685 611.624 556.918C609.204 553.247 596.496 549.577 584.998 547.48C585.603 546.956 586.208 545.383 588.024 542.761C597.101 522.313 592.26 562.685 603.757 542.761C657.616 450.482 580.762 457.298 568.659 412.208C555.345 462.017 479.701 448.909 534.165 542.761C546.268 562.685 541.427 522.313 550.504 542.761C551.714 545.907 552.925 546.956 553.53 547.48C542.032 549.577 528.719 553.247 526.298 556.918C522.667 562.685 546.268 586.279 546.268 586.279C546.268 585.23 546.873 584.706 546.873 584.182C547.478 586.279 550.504 589.949 556.556 597.29L560.792 594.668C561.397 593.619 551.714 584.706 548.083 583.133C551.714 581.56 560.792 594.144 558.976 589.949C552.925 573.696 562.607 581.036 563.817 583.658C566.843 587.852 568.053 588.901 569.264 588.376Z" fill="url(#paint28_linear)"/>
<path fill-rule="evenodd" clip-rule="evenodd" d="M569.868 589.95C569.868 590.474 568.658 589.425 568.053 589.95C567.448 590.998 566.843 590.998 565.632 592.047C560.791 596.241 555.95 602.533 540.821 603.582C490.593 607.252 497.25 629.797 500.276 628.749C549.293 617.738 548.688 653.916 569.263 650.77C589.233 653.391 589.233 617.738 638.25 628.749C641.276 629.797 647.933 605.679 597.1 603.582C586.813 603.057 569.263 592.571 569.868 589.95Z" fill="url(#paint29_linear)"/>
<path fill-rule="evenodd" clip-rule="evenodd" d="M583.788 546.956C577.736 546.432 572.29 545.908 569.264 546.432C565.633 545.908 560.792 546.432 554.74 547.481C557.161 544.859 557.161 529.654 562.002 533.324C568.054 536.994 560.792 542.762 568.054 543.286V543.81H568.659H569.869V543.286C577.736 542.762 569.869 536.994 575.921 532.8C581.367 529.654 581.367 544.859 583.788 546.956Z" fill="url(#paint30_linear)"/>
<path d="M503.093 439.12H493.57C493.198 439.12 492.862 438.895 492.72 438.55C492.58 438.206 492.662 437.814 492.926 437.551L500.852 429.761H493.57C493.063 429.761 492.653 429.347 492.653 428.844C492.654 428.336 493.063 427.928 493.57 427.928H503.093C503.465 427.928 503.801 428.153 503.941 428.498C504.082 428.842 504 429.235 503.736 429.497L495.81 437.287H503.093C503.599 437.287 504.01 437.7 504.01 438.204C504.009 438.712 503.597 439.12 503.093 439.12ZM513.762 441.003H509.276L514.408 435.958C514.674 435.694 514.752 435.304 514.614 434.959C514.474 434.615 514.135 434.388 513.762 434.388H507.034C506.53 434.388 506.117 434.798 506.117 435.304C506.117 435.806 506.53 436.221 507.034 436.221H511.522L506.39 441.264C506.122 441.529 506.044 441.918 506.185 442.263C506.327 442.611 506.661 442.836 507.034 442.836H513.762C514.268 442.836 514.678 442.424 514.678 441.92C514.678 441.414 514.268 441.003 513.762 441.003ZM503.415 448.801H500.286L504.058 445.095C504.324 444.834 504.405 444.438 504.264 444.093C504.123 443.749 503.787 443.524 503.415 443.524H498.047C497.54 443.524 497.13 443.935 497.13 444.441C497.13 444.945 497.54 445.357 498.047 445.357H501.176L497.403 449.062C497.137 449.327 497.056 449.716 497.198 450.061C497.339 450.407 497.674 450.634 498.047 450.634H503.416C503.922 450.634 504.332 450.222 504.332 449.717C504.332 449.213 503.925 448.801 503.415 448.801Z" fill="url(#paint31_linear)"/>
<path d="M470.965 407.193H458.884C458.411 407.193 457.986 406.908 457.806 406.471C457.627 406.034 457.732 405.536 458.067 405.203L468.122 395.32H458.884C458.241 395.32 457.721 394.795 457.721 394.158C457.722 393.513 458.241 392.995 458.884 392.995H470.965C471.437 392.995 471.863 393.281 472.041 393.718C472.22 394.155 472.116 394.653 471.781 394.985L461.725 404.869H470.965C471.606 404.869 472.128 405.392 472.128 406.032C472.128 406.675 471.604 407.193 470.965 407.193ZM484.5 409.582H478.809L485.32 403.182C485.657 402.847 485.756 402.352 485.581 401.915C485.403 401.478 484.973 401.19 484.5 401.19H475.964C475.326 401.19 474.801 401.711 474.801 402.353C474.801 402.99 475.326 403.516 475.964 403.516H481.659L475.147 409.914C474.808 410.25 474.708 410.743 474.887 411.181C475.067 411.622 475.491 411.908 475.964 411.908H484.5C485.143 411.908 485.663 411.385 485.663 410.745C485.663 410.104 485.143 409.582 484.5 409.582ZM471.374 419.475H467.404L472.189 414.774C472.527 414.442 472.629 413.94 472.451 413.503C472.272 413.066 471.845 412.78 471.374 412.78H464.563C463.921 412.78 463.4 413.302 463.4 413.943C463.4 414.583 463.921 415.106 464.563 415.106H468.533L463.747 419.806C463.41 420.142 463.307 420.636 463.486 421.074C463.665 421.512 464.091 421.801 464.563 421.801H471.374C472.016 421.801 472.537 421.278 472.537 420.638C472.537 419.997 472.021 419.475 471.374 419.475Z" fill="url(#paint32_linear)" fill-opacity="0.75"/>
<path d="M479.698 351.301H467.617C467.145 351.301 466.719 351.015 466.539 350.578C466.361 350.141 466.465 349.644 466.8 349.311L476.856 339.428H467.617C466.974 339.428 466.455 338.902 466.455 338.265C466.455 337.62 466.975 337.102 467.617 337.102H479.698C480.17 337.102 480.596 337.388 480.774 337.825C480.954 338.262 480.849 338.76 480.514 339.093L470.459 348.976H479.699C480.34 348.976 480.861 349.499 480.861 350.139C480.861 350.783 480.338 351.301 479.698 351.301ZM493.233 353.689H487.542L494.053 347.29C494.39 346.955 494.489 346.46 494.315 346.023C494.136 345.586 493.706 345.298 493.234 345.298H484.698C484.059 345.298 483.535 345.818 483.535 346.46C483.535 347.097 484.059 347.623 484.698 347.623H490.392L483.881 354.021C483.541 354.357 483.442 354.85 483.621 355.289C483.801 355.729 484.225 356.015 484.698 356.015H493.233C493.876 356.015 494.396 355.493 494.396 354.852C494.396 354.212 493.876 353.689 493.233 353.689ZM480.107 363.583H476.138L480.923 358.881C481.261 358.55 481.363 358.048 481.184 357.61C481.005 357.174 480.579 356.888 480.107 356.888H473.296C472.654 356.888 472.133 357.41 472.133 358.051C472.133 358.691 472.654 359.214 473.296 359.214H477.266L472.48 363.914C472.143 364.25 472.04 364.743 472.22 365.181C472.399 365.619 472.824 365.908 473.297 365.908H480.108C480.75 365.908 481.27 365.385 481.27 364.745C481.27 364.105 480.754 363.583 480.107 363.583Z" fill="url(#paint33_linear)" fill-opacity="0.44"/>
</g>
<defs>
<radialGradient id="paint0_radial" cx="0" cy="0" r="1" gradientUnits="userSpaceOnUse" gradientTransform="translate(561.52 444.559) rotate(90) scale(444.559 278.607)">
<stop stop-color="#1663BD"/>
<stop offset="1" stop-color="#0C172D" stop-opacity="0"/>
</radialGradient>
<linearGradient id="paint1_linear" x1="370.704" y1="591.904" x2="380.319" y2="612.133" gradientUnits="userSpaceOnUse">
<stop stop-color="#062E4E"/>
<stop offset="1" stop-color="#0090FF"/>
</linearGradient>
<linearGradient id="paint2_linear" x1="547.246" y1="542.806" x2="548.54" y2="546.686" gradientUnits="userSpaceOnUse">
<stop stop-color="#0090FF"/>
<stop offset="1" stop-color="#0090FF" stop-opacity="0"/>
</linearGradient>
<linearGradient id="paint3_linear" x1="526.557" y1="569.96" x2="542.074" y2="585.477" gradientUnits="userSpaceOnUse">
<stop stop-color="#0090FF"/>
<stop offset="1" stop-color="#0090FF" stop-opacity="0"/>
</linearGradient>
<linearGradient id="paint4_linear" x1="545.951" y1="590.649" x2="555.003" y2="600.993" gradientUnits="userSpaceOnUse">
<stop stop-color="#0090FF"/>
<stop offset="1" stop-color="#0090FF" stop-opacity="0"/>
</linearGradient>
<linearGradient id="paint5_linear" x1="591.208" y1="542.806" x2="591.208" y2="549.272" gradientUnits="userSpaceOnUse">
<stop stop-color="#0090FF"/>
<stop offset="1" stop-color="#0090FF" stop-opacity="0"/>
</linearGradient>
<linearGradient id="paint6_linear" x1="610.606" y1="573.84" x2="596.382" y2="585.477" gradientUnits="userSpaceOnUse">
<stop stop-color="#0090FF"/>
<stop offset="1" stop-color="#0090FF" stop-opacity="0"/>
</linearGradient>
<linearGradient id="paint7_linear" x1="592.502" y1="590.649" x2="583.451" y2="600.993" gradientUnits="userSpaceOnUse">
<stop stop-color="#0090FF"/>
<stop offset="1" stop-color="#0090FF" stop-opacity="0"/>
</linearGradient>
<linearGradient id="paint8_linear" x1="543.741" y1="696.909" x2="543.741" y2="708.947" gradientUnits="userSpaceOnUse">
<stop stop-color="#0090FF"/>
<stop offset="1" stop-color="#0090FF" stop-opacity="0"/>
</linearGradient>
<linearGradient id="paint9_linear" x1="324.838" y1="613.925" x2="487.764" y2="628.149" gradientUnits="userSpaceOnUse">
<stop stop-color="#0090FF"/>
<stop offset="1" stop-color="#388FD2" stop-opacity="0"/>
</linearGradient>
<linearGradient id="paint10_linear" x1="407.596" y1="705.732" x2="571.815" y2="686.336" gradientUnits="userSpaceOnUse">
<stop stop-color="#0090FF"/>
<stop offset="0.348654" stop-color="#1890EC" stop-opacity="0.570568"/>
<stop offset="0.910832" stop-color="#388FD2" stop-opacity="0"/>
</linearGradient>
<linearGradient id="paint11_linear" x1="547.246" y1="542.806" x2="548.54" y2="546.686" gradientUnits="userSpaceOnUse">
<stop stop-color="#0090FF"/>
<stop offset="1" stop-color="#0090FF" stop-opacity="0"/>
</linearGradient>
<linearGradient id="paint12_linear" x1="399.836" y1="470.395" x2="525.263" y2="563.495" gradientUnits="userSpaceOnUse">
<stop stop-color="#0090FF"/>
<stop offset="0.246212" stop-color="#0890F8" stop-opacity="0.853159"/>
<stop offset="0.41195" stop-color="#1390F0" stop-opacity="0.657548"/>
<stop offset="0.698149" stop-color="#1F8FE6" stop-opacity="0.440513"/>
<stop offset="1" stop-color="#388FD2" stop-opacity="0"/>
</linearGradient>
<linearGradient id="paint13_linear" x1="402.423" y1="567.374" x2="540.78" y2="595.822" gradientUnits="userSpaceOnUse">
<stop stop-color="#0090FF"/>
<stop offset="1" stop-color="#388FD2" stop-opacity="0"/>
</linearGradient>
<linearGradient id="paint14_linear" x1="526.557" y1="569.96" x2="542.074" y2="585.477" gradientUnits="userSpaceOnUse">
<stop stop-color="#0090FF"/>
<stop offset="1" stop-color="#0090FF" stop-opacity="0"/>
</linearGradient>
<linearGradient id="paint15_linear" x1="545.951" y1="590.649" x2="555.003" y2="600.993" gradientUnits="userSpaceOnUse">
<stop stop-color="#0090FF"/>
<stop offset="1" stop-color="#0090FF" stop-opacity="0"/>
</linearGradient>
<linearGradient id="paint16_linear" x1="569.227" y1="695.388" x2="570.52" y2="747.11" gradientUnits="userSpaceOnUse">
<stop stop-color="#0090FF"/>
<stop offset="1" stop-color="#388FD2" stop-opacity="0"/>
</linearGradient>
<linearGradient id="paint17_linear" x1="594.787" y1="696.909" x2="594.787" y2="708.859" gradientUnits="userSpaceOnUse">
<stop stop-color="#0090FF"/>
<stop offset="1" stop-color="#0090FF" stop-opacity="0"/>
</linearGradient>
<linearGradient id="paint18_linear" x1="570.519" y1="685.043" x2="570.519" y2="705.732" gradientUnits="userSpaceOnUse">
<stop stop-color="#0090FF"/>
<stop offset="1" stop-color="#388FD2" stop-opacity="0"/>
</linearGradient>
<linearGradient id="paint19_linear" x1="813.614" y1="624.27" x2="655.861" y2="632.028" gradientUnits="userSpaceOnUse">
<stop stop-color="#0090FF"/>
<stop offset="1" stop-color="#388FD2" stop-opacity="0"/>
</linearGradient>
<linearGradient id="paint20_linear" x1="724.396" y1="655.303" x2="589.918" y2="659.182" gradientUnits="userSpaceOnUse">
<stop stop-color="#0090FF"/>
<stop offset="1" stop-color="#388FD2" stop-opacity="0"/>
</linearGradient>
<linearGradient id="paint21_linear" x1="569.228" y1="670.819" x2="569.228" y2="677.284" gradientUnits="userSpaceOnUse">
<stop stop-color="#0090FF"/>
<stop offset="1" stop-color="#388FD2" stop-opacity="0"/>
</linearGradient>
<linearGradient id="paint22_linear" x1="566.64" y1="654.01" x2="567.933" y2="665.647" gradientUnits="userSpaceOnUse">
<stop stop-color="#008FFE"/>
<stop offset="1" stop-color="#388FD2" stop-opacity="0"/>
</linearGradient>
<linearGradient id="paint23_linear" x1="591.208" y1="542.806" x2="591.208" y2="549.272" gradientUnits="userSpaceOnUse">
<stop stop-color="#0090FF"/>
<stop offset="1" stop-color="#0090FF" stop-opacity="0"/>
</linearGradient>
<linearGradient id="paint24_linear" x1="720.513" y1="493.671" x2="606.724" y2="564.789" gradientUnits="userSpaceOnUse">
<stop stop-color="#0090FF"/>
<stop offset="0.272429" stop-color="#0F90F3" stop-opacity="0.727571"/>
<stop offset="0.639103" stop-color="#228FE3" stop-opacity="0.387222"/>
<stop offset="1" stop-color="#388FD2" stop-opacity="0"/>
</linearGradient>
<linearGradient id="paint25_linear" x1="758.013" y1="567.374" x2="614.483" y2="600.994" gradientUnits="userSpaceOnUse">
<stop offset="0.294763" stop-color="#0090FF"/>
<stop offset="0.530276" stop-color="#1690EE" stop-opacity="0.615025"/>
<stop offset="1" stop-color="#388FD2" stop-opacity="0"/>
</linearGradient>
<linearGradient id="paint26_linear" x1="610.606" y1="573.84" x2="596.382" y2="585.477" gradientUnits="userSpaceOnUse">
<stop stop-color="#0090FF"/>
<stop offset="1" stop-color="#0090FF" stop-opacity="0"/>
</linearGradient>
<linearGradient id="paint27_linear" x1="592.502" y1="590.649" x2="583.451" y2="600.993" gradientUnits="userSpaceOnUse">
<stop stop-color="#0090FF"/>
<stop offset="1" stop-color="#0090FF" stop-opacity="0"/>
</linearGradient>
<linearGradient id="paint28_linear" x1="568.694" y1="412.208" x2="568.694" y2="597.29" gradientUnits="userSpaceOnUse">
<stop stop-color="#0090FF"/>
<stop offset="0.275097" stop-color="#0C90F5" stop-opacity="0.787342"/>
<stop offset="0.535256" stop-color="#1C90E9" stop-opacity="0.50642"/>
<stop offset="1" stop-color="#388FD2" stop-opacity="0"/>
</linearGradient>
<linearGradient id="paint29_linear" x1="570.52" y1="590.65" x2="570.52" y2="650.13" gradientUnits="userSpaceOnUse">
<stop stop-color="#0291FF"/>
<stop offset="0.401433" stop-color="#1790EE" stop-opacity="0.617466"/>
<stop offset="1" stop-color="#388FD2" stop-opacity="0"/>
</linearGradient>
<linearGradient id="paint30_linear" x1="569.264" y1="532.373" x2="569.264" y2="547.481" gradientUnits="userSpaceOnUse">
<stop stop-color="#0090FF"/>
<stop offset="0.0001" stop-color="#388FD2" stop-opacity="0"/>
</linearGradient>
<linearGradient id="paint31_linear" x1="494.452" y1="428.746" x2="508.846" y2="452.464" gradientUnits="userSpaceOnUse">
<stop stop-color="#062E4E"/>
<stop offset="1" stop-color="#0090FF"/>
</linearGradient>
<linearGradient id="paint32_linear" x1="460.002" y1="394.032" x2="478.264" y2="424.122" gradientUnits="userSpaceOnUse">
<stop stop-color="#062E4E"/>
<stop offset="1" stop-color="#0090FF"/>
</linearGradient>
<linearGradient id="paint33_linear" x1="468.736" y1="338.14" x2="486.997" y2="368.229" gradientUnits="userSpaceOnUse">
<stop stop-color="#062E4E"/>
<stop offset="1" stop-color="#0090FF"/>
</linearGradient>
<clipPath id="clip0">
<path d="M241.136 0H880.201V1019.72H241.136V0Z" fill="white"/>
</clipPath>
</defs>
</svg>
