<svg width="2272" height="1823" viewBox="0 0 2272 1823" fill="none" xmlns="http://www.w3.org/2000/svg">
<path fill-rule="evenodd" clip-rule="evenodd" d="M1060.28 1766.16L755.423 1726.42C928.083 1763.82 911.896 1773.17 1060.28 1766.16Z" fill="#030D26"/>
<path fill-rule="evenodd" clip-rule="evenodd" d="M1038.7 1604.88C933.486 1663.31 1049.49 1663.31 1049.49 1653.96L1038.7 1604.88Z" fill="#030D26"/>
<path fill-rule="evenodd" clip-rule="evenodd" d="M261.728 1371.13C250.937 1371.13 -67.4055 1438.92 13.5289 1516.05C80.9743 1581.5 410.108 1667.98 275.217 1614.22C-102.477 1462.29 -13.4492 1485.66 261.728 1371.13Z" fill="#030D26"/>
<path fill-rule="evenodd" clip-rule="evenodd" d="M304.894 1408.53C202.377 1422.56 -8.05248 1485.67 213.168 1532.41C2.73877 1441.26 299.498 1448.27 323.779 1413.21C326.476 1410.87 326.476 1406.19 304.894 1408.53Z" fill="#030D26"/>
<path fill-rule="evenodd" clip-rule="evenodd" d="M399.317 1429.56C-5.3553 1466.96 550.394 1597.86 385.828 1539.42C121.442 1448.26 364.245 1459.95 418.201 1431.9C420.899 1429.56 418.201 1427.23 399.317 1429.56Z" fill="#030D26"/>
<path fill-rule="evenodd" clip-rule="evenodd" d="M515.324 1457.61C294.103 1462.29 509.928 1534.75 509.928 1502.03C509.928 1488 329.175 1504.36 515.324 1466.96V1457.61Z" fill="#030D26"/>
<path fill-rule="evenodd" clip-rule="evenodd" d="M636.723 1275.3C466.76 1118.69 485.645 1085.97 259.029 1188.82C-105.176 1347.76 53.9948 1219.2 323.776 1366.46C574.673 1502.03 520.717 1438.92 750.031 1331.4L310.287 1230.89L636.723 1275.3Z" fill="#030D26"/>
<path fill-rule="evenodd" clip-rule="evenodd" d="M1041.4 1366.46C984.746 1219.2 577.376 1319.71 412.81 1665.65C402.019 1691.36 526.118 1607.21 677.196 1660.97C928.092 1747.46 1100.75 1539.43 1089.96 1523.06C1003.63 1387.49 1278.81 1279.97 593.563 1546.44C836.367 1420.22 763.526 1455.28 1041.4 1366.46Z" fill="#030D26"/>
<path fill-rule="evenodd" clip-rule="evenodd" d="M982.048 945.721C936.185 833.525 933.488 980.782 979.35 952.733C982.048 950.396 984.746 950.396 982.048 945.721Z" fill="#0090FF"/>
<path fill-rule="evenodd" clip-rule="evenodd" d="M1049.5 934.032C1054.89 887.284 1003.63 912.995 1030.61 938.707L1049.5 934.032Z" fill="url(#paint0_linear)"/>
<path fill-rule="evenodd" clip-rule="evenodd" d="M1025.21 1165.44C957.763 1104.66 906.504 1055.58 860.641 1013.51C871.433 1018.18 876.828 1008.83 887.62 987.793C903.806 952.732 957.763 1036.88 774.311 838.198L612.443 651.204L928.087 976.106C898.411 854.56 936.18 976.106 938.878 898.971C941.576 894.296 944.274 889.622 946.971 887.284C809.383 496.935 906.504 634.843 666.399 578.744C528.81 546.02 569.277 438.499 542.299 574.07C485.645 840.536 650.212 789.112 760.822 896.634C806.685 943.382 830.965 980.781 847.152 999.481C571.975 735.352 679.888 842.873 213.166 777.425C453.271 1029.87 461.365 1116.35 803.987 1102.33L488.343 943.382C585.464 990.131 941.576 1160.76 1025.21 1165.44Z" fill="#030D26"/>
<path fill-rule="evenodd" clip-rule="evenodd" d="M1103.45 927.018C1138.52 866.245 1060.28 884.945 1087.26 931.693C1089.96 936.368 1100.75 936.368 1103.45 927.018Z" fill="#030D26"/>
<path fill-rule="evenodd" clip-rule="evenodd" d="M998.234 1174.79C852.552 1069.6 620.54 1139.73 431.693 1053.24C372.341 1025.19 547.699 1092.98 428.995 1029.87L356.154 1027.53L717.661 1308.02C833.667 1343.08 798.596 1275.3 833.667 1237.9C909.206 1160.76 1030.61 1200.5 998.234 1174.79Z" fill="#030D26"/>
<path fill-rule="evenodd" clip-rule="evenodd" d="M1006.33 1111.68C1027.91 1088.3 946.979 1046.23 925.396 1046.23C930.792 1043.89 936.188 1039.22 946.979 1032.21C949.677 1032.21 871.44 938.708 903.814 1011.17C909.21 1020.52 830.973 985.457 911.907 1050.9C922.699 1060.25 914.605 1060.25 920.001 1050.9C925.396 1057.92 946.979 1076.62 1006.33 1111.68Z" fill="url(#paint1_linear)"/>
<path fill-rule="evenodd" clip-rule="evenodd" d="M1073.77 1163.1C1073.77 1146.74 946.97 1057.92 1054.88 1172.45L1073.77 1163.1Z" fill="url(#paint2_linear)"/>
<path fill-rule="evenodd" clip-rule="evenodd" d="M1122.33 1125.7C1065.68 1006.49 1081.87 1193.49 1122.33 1132.71C1122.33 1130.38 1122.33 1130.38 1122.33 1125.7Z" fill="#0090FF"/>
<path fill-rule="evenodd" clip-rule="evenodd" d="M1208.66 1766.16L1513.51 1726.42C1343.55 1763.82 1359.74 1773.17 1208.66 1766.16Z" fill="#030D26"/>
<path fill-rule="evenodd" clip-rule="evenodd" d="M1135.82 1684.35C1224.85 1665.65 1238.34 1658.64 1168.19 1775.51C1178.98 1791.87 1187.08 1798.88 1178.98 1803.56L1508.12 1777.85C1402.9 1805.9 1222.15 1824.59 1135.82 1822.26C1052.19 1826.93 868.736 1805.9 763.521 1777.85L1092.65 1803.56C1084.56 1801.22 1092.65 1794.21 1103.45 1775.51C1033.3 1658.64 1046.79 1665.65 1133.12 1684.35H1135.82Z" fill="#030D26"/>
<path fill-rule="evenodd" clip-rule="evenodd" d="M1232.94 1604.88C1338.16 1660.97 1222.15 1663.31 1222.15 1653.96L1232.94 1604.88Z" fill="#030D26"/>
<path fill-rule="evenodd" clip-rule="evenodd" d="M1135.81 1544.1C1216.75 1506.7 1235.63 1665.65 1187.07 1670.32C1162.79 1672.66 1146.61 1672.66 1135.81 1670.32C1125.02 1672.66 1108.84 1672.66 1081.86 1670.32C1036 1665.65 1052.18 1506.7 1135.81 1544.1Z" fill="#030D26"/>
<path fill-rule="evenodd" clip-rule="evenodd" d="M2009.91 1371.13C2020.71 1371.13 2339.05 1438.92 2258.11 1516.05C2187.97 1581.5 1861.54 1667.98 1993.73 1614.22C2374.12 1462.29 2285.09 1485.66 2009.91 1371.13Z" fill="#030D26"/>
<path fill-rule="evenodd" clip-rule="evenodd" d="M1964.06 1408.53C2069.27 1420.22 2279.7 1485.67 2058.48 1532.41C2266.21 1441.26 1972.15 1448.27 1947.87 1413.21C1945.17 1410.87 1945.17 1406.19 1964.06 1408.53Z" fill="#030D26"/>
<path fill-rule="evenodd" clip-rule="evenodd" d="M1869.63 1429.56C2277 1466.96 1718.55 1597.86 1885.82 1539.42C2147.5 1448.26 1904.7 1459.95 1853.44 1431.9C1848.05 1429.56 1853.44 1427.23 1869.63 1429.56Z" fill="#030D26"/>
<path fill-rule="evenodd" clip-rule="evenodd" d="M1756.31 1457.61C1974.84 1462.29 1761.71 1534.75 1761.71 1502.03C1761.71 1488 1939.76 1504.36 1756.31 1466.96V1457.61Z" fill="#030D26"/>
<path fill-rule="evenodd" clip-rule="evenodd" d="M1634.91 1275.3C1802.18 1118.69 1783.29 1085.97 2012.61 1188.82C2374.11 1347.76 2217.64 1219.2 1945.16 1366.46C1696.96 1502.03 1750.92 1438.92 1521.6 1331.4L1961.35 1230.89L1634.91 1275.3Z" fill="#030D26"/>
<path fill-rule="evenodd" clip-rule="evenodd" d="M1230.25 1366.46C1286.91 1219.2 1694.28 1319.71 1856.14 1665.65C1869.63 1691.36 1745.53 1607.21 1594.46 1660.97C1340.86 1747.46 1168.2 1539.43 1181.69 1523.06C1268.02 1387.49 992.843 1279.97 1678.09 1546.44C1435.28 1420.22 1505.43 1455.28 1230.25 1366.46Z" fill="#030D26"/>
<path fill-rule="evenodd" clip-rule="evenodd" d="M1135.82 1502.03L1195.17 1459.95C1192.48 1499.69 1168.2 1523.06 1146.61 1532.41C1143.92 1534.75 1141.22 1537.09 1135.82 1534.75C1130.43 1537.09 1125.03 1534.75 1125.03 1532.41C1103.45 1525.4 1079.17 1499.69 1076.47 1459.95L1135.82 1502.03Z" fill="#030D26"/>
<path fill-rule="evenodd" clip-rule="evenodd" d="M1135.81 1408.53C1160.1 1394.51 1214.05 1396.85 1184.38 1455.28C1176.28 1469.31 1160.1 1485.67 1143.91 1490.34C1141.21 1492.68 1135.81 1492.68 1133.12 1492.68V1490.34H1130.42C1114.23 1488 1095.35 1469.31 1087.25 1455.28C1054.88 1396.85 1108.84 1394.51 1135.81 1408.53Z" fill="#030D26"/>
<path fill-rule="evenodd" clip-rule="evenodd" d="M1286.9 945.721C1335.46 833.525 1335.46 980.782 1289.6 952.733C1286.9 950.396 1286.9 950.396 1286.9 945.721Z" fill="#0090FF"/>
<path fill-rule="evenodd" clip-rule="evenodd" d="M1222.15 934.032C1216.75 887.284 1268.01 912.995 1241.03 938.707L1222.15 934.032Z" fill="url(#paint3_linear)"/>
<path fill-rule="evenodd" clip-rule="evenodd" d="M1165.49 927.018C1133.12 866.245 1211.35 884.945 1184.38 931.693C1181.68 936.368 1170.89 934.03 1165.49 927.018Z" fill="#030D26"/>
<path fill-rule="evenodd" clip-rule="evenodd" d="M1246.42 1165.44C1311.17 1104.67 1365.13 1053.24 1408.29 1013.51C1400.2 1015.84 1392.11 1008.83 1381.31 987.796C1365.13 952.734 1313.87 1036.88 1497.32 835.863L1656.49 651.207L1340.85 976.109C1370.52 854.563 1335.45 976.109 1330.06 898.974C1330.06 894.299 1327.36 889.624 1324.66 887.287C1462.25 496.937 1362.43 634.845 1605.23 576.409C1740.12 546.023 1699.66 436.164 1729.33 574.072C1785.99 840.538 1621.42 789.115 1510.81 896.636C1462.25 943.385 1437.97 980.784 1424.48 999.483C1699.66 735.354 1591.74 840.538 2055.77 777.428C1815.66 1029.87 1807.57 1116.35 1467.64 1102.33L1783.29 943.385C1683.47 990.133 1330.06 1160.77 1246.42 1165.44Z" fill="#030D26"/>
<path fill-rule="evenodd" clip-rule="evenodd" d="M1273.41 1174.79C1419.09 1067.27 1651.1 1139.73 1839.95 1053.24C1899.3 1025.19 1723.94 1092.98 1842.64 1029.87L1912.79 1027.53L1553.98 1308.02C1437.97 1343.08 1473.04 1275.3 1437.97 1237.9C1362.43 1160.76 1238.33 1200.5 1273.41 1174.79Z" fill="#030D26"/>
<path fill-rule="evenodd" clip-rule="evenodd" d="M1265.32 1111.68C1243.74 1088.3 1324.67 1046.23 1346.25 1046.23C1340.86 1043.89 1335.46 1039.22 1324.67 1032.2C1321.97 1032.2 1397.51 936.37 1365.14 1011.17C1362.44 1020.52 1440.68 985.456 1359.74 1050.9C1348.95 1060.25 1357.04 1060.25 1348.95 1050.9C1346.25 1057.92 1321.97 1076.62 1265.32 1111.68Z" fill="url(#paint4_linear)"/>
<path fill-rule="evenodd" clip-rule="evenodd" d="M1197.87 1163.1C1197.87 1146.74 1324.67 1057.92 1216.76 1172.45L1197.87 1163.1Z" fill="url(#paint5_linear)"/>
<path fill-rule="evenodd" clip-rule="evenodd" d="M1149.31 1125.7C1203.26 1006.49 1189.78 1193.49 1149.31 1132.71C1146.61 1130.38 1149.31 1130.38 1149.31 1125.7Z" fill="#0090FF"/>
<path fill-rule="evenodd" clip-rule="evenodd" d="M1241.03 1057.92L1135.81 1081.29L1027.9 1057.92C1095.35 1076.62 1173.58 1076.62 1241.03 1057.92Z" fill="#0090FF"/>
<path fill-rule="evenodd" clip-rule="evenodd" d="M1135.82 1121.03C1138.52 1123.37 1146.61 1116.35 1157.4 1097.65C1165.5 1088.3 1208.66 1055.58 1181.68 1128.04C1173.59 1146.74 1214.06 1090.64 1230.24 1097.65C1214.06 1104.67 1170.89 1144.4 1173.59 1149.08L1192.47 1160.76C1219.45 1128.04 1230.24 1111.68 1235.64 1102.33C1235.64 1104.67 1235.64 1107 1238.34 1111.68C1238.34 1111.68 1340.85 1006.49 1324.67 980.782C1313.88 964.42 1257.22 948.058 1205.96 938.709C1208.66 936.371 1211.36 929.359 1219.45 917.672C1259.92 826.512 1238.34 1006.49 1289.6 917.672C1529.7 506.285 1187.08 536.672 1133.12 335.654C1073.77 557.709 736.544 499.273 979.347 917.672C1033.3 1006.49 1011.72 826.512 1052.19 917.672C1057.58 931.696 1062.98 936.371 1065.68 938.709C1014.42 948.058 955.067 964.42 944.276 980.782C928.089 1006.49 1033.3 1111.68 1033.3 1111.68C1033.3 1107 1036 1104.67 1036 1102.33C1038.7 1111.68 1052.19 1128.04 1079.17 1160.76L1098.05 1149.08C1100.75 1144.4 1057.58 1104.67 1041.4 1097.65C1057.58 1090.64 1098.05 1146.74 1089.96 1128.04C1062.98 1055.58 1106.14 1088.3 1111.54 1099.99C1125.03 1118.69 1130.42 1123.37 1135.82 1121.03Z" fill="#030D26"/>
<path fill-rule="evenodd" clip-rule="evenodd" d="M1138.51 1128.04C1138.51 1130.38 1133.12 1125.7 1130.42 1128.04C1127.72 1132.72 1125.02 1132.72 1119.63 1137.39C1098.05 1156.09 1076.46 1184.14 1009.02 1188.81C785.1 1205.18 814.776 1305.69 828.265 1301.01C1046.79 1251.92 1044.09 1413.21 1135.82 1399.18C1224.84 1410.87 1224.84 1251.92 1443.37 1301.01C1456.86 1305.69 1486.53 1198.16 1259.91 1188.81C1214.05 1186.48 1135.82 1139.73 1138.51 1128.04Z" fill="#030D26"/>
<path fill-rule="evenodd" clip-rule="evenodd" d="M1200.57 936.374C1173.59 934.037 1149.31 931.699 1135.82 934.037C1119.63 931.699 1098.05 934.037 1071.07 938.712C1081.86 927.024 1081.86 859.239 1103.45 875.601C1130.42 891.963 1098.05 917.675 1130.42 920.012V922.35H1133.12H1138.52V920.012C1173.59 917.675 1138.52 891.963 1165.5 873.264C1189.78 859.239 1189.78 927.024 1200.57 936.374Z" fill="#030D26"/>
<path fill-rule="evenodd" clip-rule="evenodd" d="M1060.28 1766.16L755.423 1726.42C928.083 1763.82 911.896 1773.17 1060.28 1766.16Z" fill="#388FD2"/>
<path fill-rule="evenodd" clip-rule="evenodd" d="M1038.7 1604.88C933.486 1663.31 1049.49 1663.31 1049.49 1653.96L1038.7 1604.88Z" fill="url(#paint6_linear)"/>
<path fill-rule="evenodd" clip-rule="evenodd" d="M261.728 1371.13C250.937 1371.13 -67.4055 1438.92 13.5289 1516.05C80.9743 1581.5 410.108 1667.98 275.217 1614.22C-102.477 1462.29 -13.4492 1485.66 261.728 1371.13Z" fill="#388FD2"/>
<path fill-rule="evenodd" clip-rule="evenodd" d="M304.894 1408.53C202.377 1422.56 -8.05248 1485.67 213.168 1532.41C2.73877 1441.26 299.498 1448.27 323.779 1413.21C326.476 1410.87 326.476 1406.19 304.894 1408.53Z" fill="#388FD2"/>
<path fill-rule="evenodd" clip-rule="evenodd" d="M399.317 1429.56C-5.3553 1466.96 550.394 1597.86 385.828 1539.42C121.442 1448.26 364.245 1459.95 418.201 1431.9C420.899 1429.56 418.201 1427.23 399.317 1429.56Z" fill="#388FD2"/>
<path fill-rule="evenodd" clip-rule="evenodd" d="M515.324 1457.61C294.103 1462.29 509.928 1534.75 509.928 1502.03C509.928 1488 329.175 1504.36 515.324 1466.96V1457.61Z" fill="#388FD2"/>
<path fill-rule="evenodd" clip-rule="evenodd" d="M636.723 1275.3C466.76 1118.69 485.645 1085.97 259.029 1188.82C-105.176 1347.76 53.9948 1219.2 323.776 1366.46C574.673 1502.03 520.717 1438.92 750.031 1331.4L310.287 1230.89L636.723 1275.3Z" fill="url(#paint7_linear)"/>
<path fill-rule="evenodd" clip-rule="evenodd" d="M1041.4 1366.46C984.746 1219.2 577.376 1319.71 412.81 1665.65C402.019 1691.36 526.118 1607.21 677.196 1660.97C928.092 1747.46 1100.75 1539.43 1089.96 1523.06C1003.63 1387.49 1278.81 1279.97 593.563 1546.44C836.367 1420.22 763.526 1455.28 1041.4 1366.46Z" fill="url(#paint8_linear)"/>
<path fill-rule="evenodd" clip-rule="evenodd" d="M982.048 945.721C936.185 833.525 933.488 980.782 979.35 952.733C982.048 950.396 984.746 950.396 982.048 945.721Z" fill="#0090FF"/>
<path fill-rule="evenodd" clip-rule="evenodd" d="M1049.5 934.032C1054.89 887.284 1003.63 912.995 1030.61 938.707L1049.5 934.032Z" fill="url(#paint9_linear)"/>
<path fill-rule="evenodd" clip-rule="evenodd" d="M1025.21 1165.44C957.763 1104.66 906.504 1055.58 860.641 1013.51C871.433 1018.18 876.828 1008.83 887.62 987.793C903.806 952.732 957.763 1036.88 774.311 838.198L612.443 651.204L928.087 976.106C898.411 854.56 936.18 976.106 938.878 898.971C941.576 894.296 944.274 889.622 946.971 887.284C809.383 496.935 906.504 634.843 666.399 578.744C528.81 546.02 569.277 438.499 542.299 574.07C485.645 840.536 650.212 789.112 760.822 896.634C806.685 943.382 830.965 980.781 847.152 999.481C571.975 735.352 679.888 842.873 213.166 777.425C453.271 1029.87 461.365 1116.35 803.987 1102.33L488.343 943.382C585.464 990.131 941.576 1160.76 1025.21 1165.44Z" fill="url(#paint10_linear)"/>
<path fill-rule="evenodd" clip-rule="evenodd" d="M1103.45 927.018C1138.52 866.245 1060.28 884.945 1087.26 931.693C1089.96 936.368 1100.75 936.368 1103.45 927.018Z" fill="#388FD2"/>
<path fill-rule="evenodd" clip-rule="evenodd" d="M998.234 1174.79C852.552 1069.6 620.54 1139.73 431.693 1053.24C372.341 1025.19 547.699 1092.98 428.995 1029.87L356.154 1027.53L717.661 1308.02C833.667 1343.08 798.596 1275.3 833.667 1237.9C909.206 1160.76 1030.61 1200.5 998.234 1174.79Z" fill="url(#paint11_linear)"/>
<path fill-rule="evenodd" clip-rule="evenodd" d="M1006.33 1111.68C1027.91 1088.3 946.979 1046.23 925.396 1046.23C930.792 1043.89 936.188 1039.22 946.979 1032.21C949.677 1032.21 871.44 938.708 903.814 1011.17C909.21 1020.52 830.973 985.457 911.907 1050.9C922.699 1060.25 914.605 1060.25 920.001 1050.9C925.396 1057.92 946.979 1076.62 1006.33 1111.68Z" fill="url(#paint12_linear)"/>
<path fill-rule="evenodd" clip-rule="evenodd" d="M1073.77 1163.1C1073.77 1146.74 946.97 1057.92 1054.88 1172.45L1073.77 1163.1Z" fill="url(#paint13_linear)"/>
<path fill-rule="evenodd" clip-rule="evenodd" d="M1122.33 1125.7C1065.68 1006.49 1081.87 1193.49 1122.33 1132.71C1122.33 1130.38 1122.33 1130.38 1122.33 1125.7Z" fill="#0090FF"/>
<path fill-rule="evenodd" clip-rule="evenodd" d="M1208.66 1766.16L1513.51 1726.42C1343.55 1763.82 1359.74 1773.17 1208.66 1766.16Z" fill="#388FD2"/>
<path fill-rule="evenodd" clip-rule="evenodd" d="M1135.82 1684.35C1224.85 1665.65 1238.34 1658.64 1168.19 1775.51C1178.98 1791.87 1187.08 1798.88 1178.98 1803.56L1508.12 1777.85C1402.9 1805.9 1222.15 1824.59 1135.82 1822.26C1052.19 1826.93 868.736 1805.9 763.521 1777.85L1092.65 1803.56C1084.56 1801.22 1092.65 1794.21 1103.45 1775.51C1033.3 1658.64 1046.79 1665.65 1133.12 1684.35H1135.82Z" fill="url(#paint14_linear)"/>
<path fill-rule="evenodd" clip-rule="evenodd" d="M1232.94 1604.88C1338.16 1660.97 1222.15 1663.31 1222.15 1653.96L1232.94 1604.88Z" fill="url(#paint15_linear)"/>
<path fill-rule="evenodd" clip-rule="evenodd" d="M1135.81 1544.1C1216.75 1506.7 1235.63 1665.65 1187.07 1670.32C1162.79 1672.66 1146.61 1672.66 1135.81 1670.32C1125.02 1672.66 1108.84 1672.66 1081.86 1670.32C1036 1665.65 1052.18 1506.7 1135.81 1544.1Z" fill="url(#paint16_linear)"/>
<path fill-rule="evenodd" clip-rule="evenodd" d="M2009.91 1371.13C2020.71 1371.13 2339.05 1438.92 2258.11 1516.05C2187.97 1581.5 1861.54 1667.98 1993.73 1614.22C2374.12 1462.29 2285.09 1485.66 2009.91 1371.13Z" fill="#388FD2"/>
<path fill-rule="evenodd" clip-rule="evenodd" d="M1964.06 1408.53C2069.27 1420.22 2279.7 1485.67 2058.48 1532.41C2266.21 1441.26 1972.15 1448.27 1947.87 1413.21C1945.17 1410.87 1945.17 1406.19 1964.06 1408.53Z" fill="#388FD2"/>
<path fill-rule="evenodd" clip-rule="evenodd" d="M1869.63 1429.56C2277 1466.96 1718.55 1597.86 1885.82 1539.42C2147.5 1448.26 1904.7 1459.95 1853.44 1431.9C1848.05 1429.56 1853.44 1427.23 1869.63 1429.56Z" fill="#388FD2"/>
<path fill-rule="evenodd" clip-rule="evenodd" d="M1756.31 1457.61C1974.84 1462.29 1761.71 1534.75 1761.71 1502.03C1761.71 1488 1939.76 1504.36 1756.31 1466.96V1457.61Z" fill="#388FD2"/>
<path fill-rule="evenodd" clip-rule="evenodd" d="M1634.91 1275.3C1802.18 1118.69 1783.29 1085.97 2012.61 1188.82C2374.11 1347.76 2217.64 1219.2 1945.16 1366.46C1696.96 1502.03 1750.92 1438.92 1521.6 1331.4L1961.35 1230.89L1634.91 1275.3Z" fill="url(#paint17_linear)"/>
<path fill-rule="evenodd" clip-rule="evenodd" d="M1230.25 1366.46C1286.91 1219.2 1694.28 1319.71 1856.14 1665.65C1869.63 1691.36 1745.53 1607.21 1594.46 1660.97C1340.86 1747.46 1168.2 1539.43 1181.69 1523.06C1268.02 1387.49 992.843 1279.97 1678.09 1546.44C1435.28 1420.22 1505.43 1455.28 1230.25 1366.46Z" fill="url(#paint18_linear)"/>
<path fill-rule="evenodd" clip-rule="evenodd" d="M1135.82 1502.03L1195.17 1459.95C1192.48 1499.69 1168.2 1523.06 1146.61 1532.41C1143.92 1534.75 1141.22 1537.09 1135.82 1534.75C1130.43 1537.09 1125.03 1534.75 1125.03 1532.41C1103.45 1525.4 1079.17 1499.69 1076.47 1459.95L1135.82 1502.03Z" fill="url(#paint19_linear)"/>
<path fill-rule="evenodd" clip-rule="evenodd" d="M1135.81 1408.53C1160.1 1394.51 1214.05 1396.85 1184.38 1455.28C1176.28 1469.31 1160.1 1485.67 1143.91 1490.34C1141.21 1492.68 1135.81 1492.68 1133.12 1492.68V1490.34H1130.42C1114.23 1488 1095.35 1469.31 1087.25 1455.28C1054.88 1396.85 1108.84 1394.51 1135.81 1408.53Z" fill="url(#paint20_linear)"/>
<path fill-rule="evenodd" clip-rule="evenodd" d="M1286.9 945.721C1335.46 833.525 1335.46 980.782 1289.6 952.733C1286.9 950.396 1286.9 950.396 1286.9 945.721Z" fill="#0090FF"/>
<path fill-rule="evenodd" clip-rule="evenodd" d="M1222.15 934.032C1216.75 887.284 1268.01 912.995 1241.03 938.707L1222.15 934.032Z" fill="url(#paint21_linear)"/>
<path fill-rule="evenodd" clip-rule="evenodd" d="M1165.49 927.018C1133.12 866.245 1211.35 884.945 1184.38 931.693C1181.68 936.368 1170.89 934.03 1165.49 927.018Z" fill="#388FD2"/>
<path fill-rule="evenodd" clip-rule="evenodd" d="M1246.42 1165.44C1311.17 1104.67 1365.13 1053.24 1408.29 1013.51C1400.2 1015.84 1392.11 1008.83 1381.31 987.796C1365.13 952.734 1313.87 1036.88 1497.32 835.863L1656.49 651.207L1340.85 976.109C1370.52 854.563 1335.45 976.109 1330.06 898.974C1330.06 894.299 1327.36 889.624 1324.66 887.287C1462.25 496.937 1362.43 634.845 1605.23 576.409C1740.12 546.023 1699.66 436.164 1729.33 574.072C1785.99 840.538 1621.42 789.115 1510.81 896.636C1462.25 943.385 1437.97 980.784 1424.48 999.483C1699.66 735.354 1591.74 840.538 2055.77 777.428C1815.66 1029.87 1807.57 1116.35 1467.64 1102.33L1783.29 943.385C1683.47 990.133 1330.06 1160.77 1246.42 1165.44Z" fill="url(#paint22_linear)"/>
<path fill-rule="evenodd" clip-rule="evenodd" d="M1273.41 1174.79C1419.09 1067.27 1651.1 1139.73 1839.95 1053.24C1899.3 1025.19 1723.94 1092.98 1842.64 1029.87L1912.79 1027.53L1553.98 1308.02C1437.97 1343.08 1473.04 1275.3 1437.97 1237.9C1362.43 1160.76 1238.33 1200.5 1273.41 1174.79Z" fill="url(#paint23_linear)"/>
<path fill-rule="evenodd" clip-rule="evenodd" d="M1265.32 1111.68C1243.74 1088.3 1324.67 1046.23 1346.25 1046.23C1340.86 1043.89 1335.46 1039.22 1324.67 1032.2C1321.97 1032.2 1397.51 936.37 1365.14 1011.17C1362.44 1020.52 1440.68 985.456 1359.74 1050.9C1348.95 1060.25 1357.04 1060.25 1348.95 1050.9C1346.25 1057.92 1321.97 1076.62 1265.32 1111.68Z" fill="url(#paint24_linear)"/>
<path fill-rule="evenodd" clip-rule="evenodd" d="M1197.87 1163.1C1197.87 1146.74 1324.67 1057.92 1216.76 1172.45L1197.87 1163.1Z" fill="url(#paint25_linear)"/>
<path fill-rule="evenodd" clip-rule="evenodd" d="M1149.31 1125.7C1203.26 1006.49 1189.78 1193.49 1149.31 1132.71C1146.61 1130.38 1149.31 1130.38 1149.31 1125.7Z" fill="#0090FF"/>
<path fill-rule="evenodd" clip-rule="evenodd" d="M1241.03 1057.92L1135.81 1081.29L1027.9 1057.92C1095.35 1076.62 1173.58 1076.62 1241.03 1057.92Z" fill="#0090FF"/>
<path fill-rule="evenodd" clip-rule="evenodd" d="M1135.82 1121.03C1138.52 1123.37 1146.61 1116.35 1157.4 1097.65C1165.5 1088.3 1208.66 1055.58 1181.68 1128.04C1173.59 1146.74 1214.06 1090.64 1230.24 1097.65C1214.06 1104.67 1170.89 1144.4 1173.59 1149.08L1192.47 1160.76C1219.45 1128.04 1230.24 1111.68 1235.64 1102.33C1235.64 1104.67 1235.64 1107 1238.34 1111.68C1238.34 1111.68 1340.85 1006.49 1324.67 980.782C1313.88 964.42 1257.22 948.058 1205.96 938.709C1208.66 936.371 1211.36 929.359 1219.45 917.672C1259.92 826.512 1238.34 1006.49 1289.6 917.672C1529.7 506.285 1187.08 536.672 1133.12 335.654C1073.77 557.709 736.544 499.273 979.347 917.672C1033.3 1006.49 1011.72 826.512 1052.19 917.672C1057.58 931.696 1062.98 936.371 1065.68 938.709C1014.42 948.058 955.067 964.42 944.276 980.782C928.089 1006.49 1033.3 1111.68 1033.3 1111.68C1033.3 1107 1036 1104.67 1036 1102.33C1038.7 1111.68 1052.19 1128.04 1079.17 1160.76L1098.05 1149.08C1100.75 1144.4 1057.58 1104.67 1041.4 1097.65C1057.58 1090.64 1098.05 1146.74 1089.96 1128.04C1062.98 1055.58 1106.14 1088.3 1111.54 1099.99C1125.03 1118.69 1130.42 1123.37 1135.82 1121.03Z" fill="url(#paint26_linear)"/>
<path fill-rule="evenodd" clip-rule="evenodd" d="M1138.51 1128.04C1138.51 1130.38 1133.12 1125.7 1130.42 1128.04C1127.72 1132.72 1125.02 1132.72 1119.63 1137.39C1098.05 1156.09 1076.46 1184.14 1009.02 1188.81C785.1 1205.18 814.776 1305.69 828.265 1301.01C1046.79 1251.92 1044.09 1413.21 1135.82 1399.18C1224.84 1410.87 1224.84 1251.92 1443.37 1301.01C1456.86 1305.69 1486.53 1198.16 1259.91 1188.81C1214.05 1186.48 1135.82 1139.73 1138.51 1128.04Z" fill="url(#paint27_linear)"/>
<path fill-rule="evenodd" clip-rule="evenodd" d="M1200.57 936.374C1173.59 934.037 1149.31 931.699 1135.82 934.037C1119.63 931.699 1098.05 934.037 1071.07 938.712C1081.86 927.024 1081.86 859.239 1103.45 875.601C1130.42 891.963 1098.05 917.675 1130.42 920.012V922.35H1133.12H1138.52V920.012C1173.59 917.675 1138.52 891.963 1165.5 873.264C1189.78 859.239 1189.78 927.024 1200.57 936.374Z" fill="url(#paint28_linear)"/>
<path d="M840.824 455.629H798.371C796.71 455.629 795.215 454.627 794.582 453.09C793.955 451.554 794.322 449.807 795.499 448.635L830.835 413.907H798.371C796.11 413.907 794.284 412.059 794.284 409.82C794.286 407.554 796.112 405.734 798.371 405.734H840.824C842.482 405.734 843.98 406.739 844.605 408.276C845.235 409.811 844.868 411.56 843.691 412.728L808.356 447.46H840.825C843.078 447.46 844.912 449.299 844.912 451.546C844.91 453.809 843.071 455.629 840.824 455.629ZM888.388 464.024H868.388L891.268 441.534C892.453 440.357 892.801 438.617 892.187 437.082C891.56 435.546 890.049 434.534 888.389 434.534H858.392C856.149 434.534 854.305 436.364 854.305 438.619C854.305 440.858 856.149 442.705 858.392 442.705H878.403L855.522 465.189C854.329 466.37 853.979 468.103 854.607 469.643C855.24 471.192 856.731 472.197 858.392 472.197H888.387C890.646 472.197 892.473 470.36 892.473 468.11C892.473 465.858 890.646 464.024 888.388 464.024ZM842.262 498.789H828.312L845.127 482.269C846.315 481.103 846.673 479.339 846.046 477.802C845.416 476.267 843.918 475.262 842.26 475.262H818.327C816.071 475.262 814.239 477.097 814.239 479.349C814.239 481.598 816.071 483.436 818.327 483.436H832.277L815.458 499.952C814.274 501.134 813.912 502.866 814.544 504.407C815.172 505.947 816.667 506.96 818.328 506.96H842.263C844.519 506.96 846.348 505.124 846.348 502.874C846.348 500.623 844.535 498.789 842.262 498.789Z" fill="url(#paint29_linear)"/>
<path d="M697.594 313.298H643.738C641.63 313.298 639.734 312.027 638.931 310.077C638.135 308.129 638.601 305.912 640.095 304.426L684.922 260.369H643.738C640.87 260.369 638.553 258.025 638.553 255.184C638.555 252.309 640.872 250 643.738 250H697.594C699.698 250 701.598 251.275 702.392 253.225C703.191 255.173 702.725 257.392 701.232 258.874L656.404 302.935H697.596C700.455 302.935 702.78 305.268 702.78 308.119C702.778 310.989 700.445 313.298 697.594 313.298ZM757.936 323.948H732.563L761.59 295.418C763.092 293.925 763.534 291.717 762.755 289.769C761.96 287.821 760.043 286.537 757.937 286.537H719.882C717.036 286.537 714.698 288.859 714.698 291.719C714.698 294.559 717.036 296.903 719.882 296.903H745.269L716.241 325.427C714.727 326.925 714.283 329.123 715.081 331.077C715.884 333.042 717.775 334.317 719.882 334.317H757.934C760.8 334.317 763.118 331.987 763.118 329.133C763.118 326.276 760.8 323.948 757.936 323.948ZM699.418 368.052H681.721L703.054 347.095C704.56 345.616 705.015 343.377 704.22 341.427C703.421 339.481 701.52 338.206 699.417 338.206H669.054C666.192 338.206 663.868 340.534 663.868 343.39C663.868 346.243 666.192 348.575 669.054 348.575H686.752L665.415 369.529C663.913 371.027 663.454 373.225 664.255 375.179C665.052 377.133 666.949 378.419 669.056 378.419H699.42C702.283 378.419 704.603 376.089 704.603 373.235C704.603 370.38 702.303 368.052 699.418 368.052Z" fill="url(#paint30_linear)" fill-opacity="0.75"/>
<path d="M736.528 64.1248H682.671C680.564 64.1248 678.667 62.8537 677.864 60.9036C677.069 58.9553 677.535 56.7387 679.028 55.253L723.856 11.1953H682.671C679.803 11.1953 677.487 8.8511 677.487 6.011C677.489 3.13575 679.805 0.82666 682.671 0.82666H736.528C738.631 0.82666 740.532 2.10147 741.325 4.05161C742.125 5.9999 741.658 8.21832 740.165 9.70036L695.338 53.7617H736.53C739.388 53.7617 741.714 56.0948 741.714 58.946C741.712 61.8157 739.379 64.1248 736.528 64.1248ZM796.869 74.7747H771.497L800.523 46.2442C802.026 44.7511 802.468 42.5438 801.689 40.5955C800.893 38.6472 798.977 37.3631 796.871 37.3631H758.816C755.97 37.3631 753.631 39.6852 753.631 42.5456C753.631 45.3857 755.97 47.7299 758.816 47.7299H784.203L755.174 76.2531C753.661 77.7517 753.217 79.9498 754.014 81.9037C754.817 83.8686 756.708 85.1434 758.816 85.1434H796.867C799.733 85.1434 802.052 82.814 802.052 79.9591C802.052 77.1023 799.733 74.7747 796.869 74.7747ZM738.352 118.879H720.655L741.988 97.9211C743.494 96.4428 743.949 94.204 743.153 92.2538C742.354 90.3074 740.454 89.0326 738.35 89.0326H707.988C705.126 89.0326 702.802 91.3602 702.802 94.2169C702.802 97.07 705.126 99.4013 707.988 99.4013H725.685L704.349 120.355C702.846 121.854 702.387 124.052 703.188 126.006C703.986 127.96 705.882 129.245 707.99 129.245H738.354C741.216 129.245 743.536 126.916 743.536 124.061C743.536 121.206 741.237 118.879 738.352 118.879Z" fill="url(#paint31_linear)" fill-opacity="0.44"/>
<defs>
<linearGradient id="paint0_linear" x1="1037.66" y1="917.872" x2="1043.43" y2="935.165" gradientUnits="userSpaceOnUse">
<stop stop-color="#0090FF"/>
<stop offset="1" stop-color="#0090FF" stop-opacity="0"/>
</linearGradient>
<linearGradient id="paint1_linear" x1="945.433" y1="1038.93" x2="1014.61" y2="1108.1" gradientUnits="userSpaceOnUse">
<stop stop-color="#0090FF"/>
<stop offset="1" stop-color="#0090FF" stop-opacity="0"/>
</linearGradient>
<linearGradient id="paint2_linear" x1="1031.89" y1="1131.16" x2="1072.24" y2="1177.28" gradientUnits="userSpaceOnUse">
<stop stop-color="#0090FF"/>
<stop offset="1" stop-color="#0090FF" stop-opacity="0"/>
</linearGradient>
<linearGradient id="paint3_linear" x1="1233.65" y1="917.872" x2="1233.65" y2="946.694" gradientUnits="userSpaceOnUse">
<stop stop-color="#0090FF"/>
<stop offset="1" stop-color="#0090FF" stop-opacity="0"/>
</linearGradient>
<linearGradient id="paint4_linear" x1="1320.13" y1="1056.22" x2="1256.72" y2="1108.1" gradientUnits="userSpaceOnUse">
<stop stop-color="#0090FF"/>
<stop offset="1" stop-color="#0090FF" stop-opacity="0"/>
</linearGradient>
<linearGradient id="paint5_linear" x1="1239.42" y1="1131.16" x2="1199.07" y2="1177.28" gradientUnits="userSpaceOnUse">
<stop stop-color="#0090FF"/>
<stop offset="1" stop-color="#0090FF" stop-opacity="0"/>
</linearGradient>
<linearGradient id="paint6_linear" x1="1022.04" y1="1604.88" x2="1022.04" y2="1658.54" gradientUnits="userSpaceOnUse">
<stop stop-color="#0090FF"/>
<stop offset="1" stop-color="#0090FF" stop-opacity="0"/>
</linearGradient>
<linearGradient id="paint7_linear" x1="46.1549" y1="1234.93" x2="772.488" y2="1298.34" gradientUnits="userSpaceOnUse">
<stop stop-color="#0090FF"/>
<stop offset="1" stop-color="#388FD2" stop-opacity="0"/>
</linearGradient>
<linearGradient id="paint8_linear" x1="415.092" y1="1644.21" x2="1147.19" y2="1557.74" gradientUnits="userSpaceOnUse">
<stop stop-color="#0090FF"/>
<stop offset="0.348654" stop-color="#1890EC" stop-opacity="0.570568"/>
<stop offset="0.910832" stop-color="#388FD2" stop-opacity="0"/>
</linearGradient>
<linearGradient id="paint9_linear" x1="1037.66" y1="917.872" x2="1043.43" y2="935.165" gradientUnits="userSpaceOnUse">
<stop stop-color="#0090FF"/>
<stop offset="1" stop-color="#0090FF" stop-opacity="0"/>
</linearGradient>
<linearGradient id="paint10_linear" x1="380.498" y1="595.057" x2="939.66" y2="1010.1" gradientUnits="userSpaceOnUse">
<stop stop-color="#0090FF"/>
<stop offset="0.246212" stop-color="#0890F8" stop-opacity="0.853159"/>
<stop offset="0.41195" stop-color="#1390F0" stop-opacity="0.657548"/>
<stop offset="0.698149" stop-color="#1F8FE6" stop-opacity="0.440513"/>
<stop offset="1" stop-color="#388FD2" stop-opacity="0"/>
</linearGradient>
<linearGradient id="paint11_linear" x1="392.032" y1="1027.4" x2="1008.84" y2="1154.22" gradientUnits="userSpaceOnUse">
<stop stop-color="#0090FF"/>
<stop offset="1" stop-color="#388FD2" stop-opacity="0"/>
</linearGradient>
<linearGradient id="paint12_linear" x1="945.433" y1="1038.93" x2="1014.61" y2="1108.1" gradientUnits="userSpaceOnUse">
<stop stop-color="#0090FF"/>
<stop offset="1" stop-color="#0090FF" stop-opacity="0"/>
</linearGradient>
<linearGradient id="paint13_linear" x1="1031.89" y1="1131.16" x2="1072.24" y2="1177.28" gradientUnits="userSpaceOnUse">
<stop stop-color="#0090FF"/>
<stop offset="1" stop-color="#0090FF" stop-opacity="0"/>
</linearGradient>
<linearGradient id="paint14_linear" x1="1135.66" y1="1598.09" x2="1141.42" y2="1828.67" gradientUnits="userSpaceOnUse">
<stop stop-color="#0090FF"/>
<stop offset="1" stop-color="#388FD2" stop-opacity="0"/>
</linearGradient>
<linearGradient id="paint15_linear" x1="1249.61" y1="1604.88" x2="1249.61" y2="1658.15" gradientUnits="userSpaceOnUse">
<stop stop-color="#0090FF"/>
<stop offset="1" stop-color="#0090FF" stop-opacity="0"/>
</linearGradient>
<linearGradient id="paint16_linear" x1="1141.42" y1="1551.97" x2="1141.42" y2="1644.21" gradientUnits="userSpaceOnUse">
<stop stop-color="#0090FF"/>
<stop offset="1" stop-color="#388FD2" stop-opacity="0"/>
</linearGradient>
<linearGradient id="paint17_linear" x1="2225.15" y1="1281.04" x2="1521.88" y2="1315.63" gradientUnits="userSpaceOnUse">
<stop stop-color="#0090FF"/>
<stop offset="1" stop-color="#388FD2" stop-opacity="0"/>
</linearGradient>
<linearGradient id="paint18_linear" x1="1827.41" y1="1419.39" x2="1227.9" y2="1436.68" gradientUnits="userSpaceOnUse">
<stop stop-color="#0090FF"/>
<stop offset="1" stop-color="#388FD2" stop-opacity="0"/>
</linearGradient>
<linearGradient id="paint19_linear" x1="1135.66" y1="1488.56" x2="1135.66" y2="1517.39" gradientUnits="userSpaceOnUse">
<stop stop-color="#0090FF"/>
<stop offset="1" stop-color="#388FD2" stop-opacity="0"/>
</linearGradient>
<linearGradient id="paint20_linear" x1="1124.12" y1="1413.63" x2="1129.89" y2="1465.51" gradientUnits="userSpaceOnUse">
<stop stop-color="#008FFE"/>
<stop offset="1" stop-color="#388FD2" stop-opacity="0"/>
</linearGradient>
<linearGradient id="paint21_linear" x1="1233.65" y1="917.872" x2="1233.65" y2="946.694" gradientUnits="userSpaceOnUse">
<stop stop-color="#0090FF"/>
<stop offset="1" stop-color="#0090FF" stop-opacity="0"/>
</linearGradient>
<linearGradient id="paint22_linear" x1="1810.1" y1="698.822" x2="1302.82" y2="1015.87" gradientUnits="userSpaceOnUse">
<stop stop-color="#0090FF"/>
<stop offset="0.272429" stop-color="#0F90F3" stop-opacity="0.727571"/>
<stop offset="0.639103" stop-color="#228FE3" stop-opacity="0.387222"/>
<stop offset="1" stop-color="#388FD2" stop-opacity="0"/>
</linearGradient>
<linearGradient id="paint23_linear" x1="1977.28" y1="1027.4" x2="1337.41" y2="1177.28" gradientUnits="userSpaceOnUse">
<stop offset="0.294763" stop-color="#0090FF"/>
<stop offset="0.530276" stop-color="#1690EE" stop-opacity="0.615025"/>
<stop offset="1" stop-color="#388FD2" stop-opacity="0"/>
</linearGradient>
<linearGradient id="paint24_linear" x1="1320.13" y1="1056.22" x2="1256.72" y2="1108.1" gradientUnits="userSpaceOnUse">
<stop stop-color="#0090FF"/>
<stop offset="1" stop-color="#0090FF" stop-opacity="0"/>
</linearGradient>
<linearGradient id="paint25_linear" x1="1239.42" y1="1131.16" x2="1199.07" y2="1177.28" gradientUnits="userSpaceOnUse">
<stop stop-color="#0090FF"/>
<stop offset="1" stop-color="#0090FF" stop-opacity="0"/>
</linearGradient>
<linearGradient id="paint26_linear" x1="1133.28" y1="335.654" x2="1133.28" y2="1160.76" gradientUnits="userSpaceOnUse">
<stop stop-color="#0090FF"/>
<stop offset="0.275097" stop-color="#0C90F5" stop-opacity="0.787342"/>
<stop offset="0.535256" stop-color="#1C90E9" stop-opacity="0.50642"/>
<stop offset="1" stop-color="#388FD2" stop-opacity="0"/>
</linearGradient>
<linearGradient id="paint27_linear" x1="1141.42" y1="1131.16" x2="1141.42" y2="1396.33" gradientUnits="userSpaceOnUse">
<stop stop-color="#0291FF"/>
<stop offset="0.401433" stop-color="#1790EE" stop-opacity="0.617466"/>
<stop offset="1" stop-color="#388FD2" stop-opacity="0"/>
</linearGradient>
<linearGradient id="paint28_linear" x1="1135.82" y1="871.361" x2="1135.82" y2="938.712" gradientUnits="userSpaceOnUse">
<stop stop-color="#0090FF"/>
<stop offset="0.0001" stop-color="#388FD2" stop-opacity="0"/>
</linearGradient>
<linearGradient id="paint29_linear" x1="802.301" y1="409.38" x2="866.473" y2="515.117" gradientUnits="userSpaceOnUse">
<stop stop-color="#062E4E"/>
<stop offset="1" stop-color="#0090FF"/>
</linearGradient>
<linearGradient id="paint30_linear" x1="648.723" y1="254.626" x2="730.133" y2="388.767" gradientUnits="userSpaceOnUse">
<stop stop-color="#062E4E"/>
<stop offset="1" stop-color="#0090FF"/>
</linearGradient>
<linearGradient id="paint31_linear" x1="687.657" y1="5.45223" x2="769.067" y2="139.594" gradientUnits="userSpaceOnUse">
<stop stop-color="#062E4E"/>
<stop offset="1" stop-color="#0090FF"/>
</linearGradient>
</defs>
</svg>
